<?xml version="1.0" encoding="UTF-8" standalone="no"?>
<svg
   xmlns:dc="http://purl.org/dc/elements/1.1/"
   xmlns:cc="http://creativecommons.org/ns#"
   xmlns:rdf="http://www.w3.org/1999/02/22-rdf-syntax-ns#"
   xmlns:svg="http://www.w3.org/2000/svg"
   xmlns="http://www.w3.org/2000/svg"
   viewBox="0 0 2592 3264"
   height="3264"
   width="2592"
   xml:space="preserve"
   id="svg2"
   version="1.1"><metadata
     id="metadata8"><rdf:RDF><cc:Work
         rdf:about=""><dc:format>image/svg+xml</dc:format><dc:type
           rdf:resource="http://purl.org/dc/dcmitype/StillImage" /></cc:Work></rdf:RDF></metadata><defs
     id="defs6" /><g
     transform="matrix(1.3333333,0,0,-1.3333333,0,3264)"
     id="g10"><g
       transform="translate(1143.4531,1127.1406)"
       id="g12"><path
         id="path14"
         style="fill:#754c29;fill-opacity:1;fill-rule:nonzero;stroke:none"
         d="m 0,0 -40.498,-219.697 h -33 l 0,219.697 z" /></g><g
       transform="translate(1333.4668,782.0039)"
       id="g16"><path
         id="path18"
         style="fill:#754c29;fill-opacity:1;fill-rule:nonzero;stroke:none"
         d="m 0,0 -40.498,-219.697 h -33 l 0,219.697 z" /></g><g
       transform="translate(1579.4531,807.3066)"
       id="g20"><path
         id="path22"
         style="fill:#754c29;fill-opacity:1;fill-rule:nonzero;stroke:none"
         d="M 0,0 -40.498,-219.697 H -73.496 V 0 Z" /></g><g
       transform="translate(1603.4531,817.3867)"
       id="g24"><path
         id="path26"
         style="fill:#8b5d3b;fill-opacity:1;fill-rule:nonzero;stroke:none"
         d="m 0,0 -362,-39.059 -196,380.077 256,31.263 z" /></g><g
       transform="translate(1241.4531,778.3281)"
       id="g28"><path
         id="path30"
         style="fill:#603912;fill-opacity:1;fill-rule:nonzero;stroke:none"
         d="M 0,0 V -36.102 L 362,0 v 39.059 z" /></g><g
       transform="translate(1045.4531,1158.4043)"
       id="g32"><path
         id="path34"
         style="fill:#754c29;fill-opacity:1;fill-rule:nonzero;stroke:none"
         d="m 0,0 v -38.76 l 196,-377.418 v 36.102 z" /></g></g></svg>