<?xml version="1.0" encoding="UTF-8" standalone="no"?>
<svg
   xmlns:dc="http://purl.org/dc/elements/1.1/"
   xmlns:cc="http://creativecommons.org/ns#"
   xmlns:rdf="http://www.w3.org/1999/02/22-rdf-syntax-ns#"
   xmlns:svg="http://www.w3.org/2000/svg"
   xmlns="http://www.w3.org/2000/svg"
   viewBox="0 0 2592 3264"
   height="3264"
   width="2592"
   xml:space="preserve"
   id="svg2"
   version="1.1"><metadata
     id="metadata8"><rdf:RDF><cc:Work
         rdf:about=""><dc:format>image/svg+xml</dc:format><dc:type
           rdf:resource="http://purl.org/dc/dcmitype/StillImage" /></cc:Work></rdf:RDF></metadata><defs
     id="defs6"><clipPath
       id="clipPath22"
       clipPathUnits="userSpaceOnUse"><path
         id="path20"
         d="M 0,2448 H 1944 V 0 H 0 Z" /></clipPath></defs><g
     transform="matrix(1.3333333,0,0,-1.3333333,0,3264)"
     id="g10"><g
       transform="translate(1159.9688,1027.4141)"
       id="g12"><path
         id="path14"
         style="fill:#808285;fill-opacity:1;fill-rule:nonzero;stroke:none"
         d="m 0,0 0.009,82.01 -218.238,2.06 V 2.057 Z" /></g><g
       id="g16"><g
         clip-path="url(#clipPath22)"
         id="g18"><g
           transform="translate(941.7402,1030.502)"
           id="g24"><path
             id="path26"
             style="fill:#808285;fill-opacity:1;fill-rule:nonzero;stroke:none"
             d="M 0,0 C 0.045,4.742 48.935,8.127 109.196,7.559 169.456,6.99 218.272,2.686 218.229,-2.059 218.183,-6.803 169.296,-10.188 109.034,-9.619 48.772,-9.051 -0.045,-4.744 0,0" /></g><g
           transform="translate(941.7402,1112.5137)"
           id="g28"><path
             id="path30"
             style="fill:#939598;fill-opacity:1;fill-rule:nonzero;stroke:none"
             d="M 0,0 C 0.063,6.793 48.97,11.838 109.234,11.27 169.499,10.701 218.302,4.734 218.237,-2.059 218.173,-8.852 169.267,-13.898 109.003,-13.33 48.737,-12.76 -0.064,-6.793 0,0" /></g><g
           transform="translate(1142.5459,1167.9229)"
           id="g32"><path
             id="path34"
             style="fill:#414142;fill-opacity:1;fill-rule:nonzero;stroke:none"
             d="m 0,0 c 0,-4.729 -4.495,-8.562 -10.041,-8.562 h -155.982 c -5.546,0 -10.041,3.833 -10.041,8.562 0,4.729 4.495,8.562 10.041,8.562 H -10.041 C -4.495,8.562 0,4.729 0,0" /></g><g
           transform="translate(1156.3438,1182.2285)"
           id="g36"><path
             id="path38"
             style="fill:#808285;fill-opacity:1;fill-rule:nonzero;stroke:none"
             d="m 0,0 c 0,-10.87 -47.228,-19.682 -105.485,-19.682 -58.257,0 -105.485,8.812 -105.485,19.682 0,10.87 47.228,19.682 105.485,19.682 C -47.228,19.682 0,10.87 0,0" /></g><g
           transform="translate(902.3203,1388.3135)"
           id="g40"><path
             id="path42"
             style="fill:#808285;fill-opacity:1;fill-rule:nonzero;stroke:none"
             d="M 0,0 43.054,-206.085 H 254.023 L 302.08,0 Z" /></g><g
           transform="translate(1204.4004,1388.3135)"
           id="g44"><path
             id="path46"
             style="fill:#939598;fill-opacity:1;fill-rule:nonzero;stroke:none"
             d="m 0,0 c 0,-15.564 -67.623,-28.182 -151.04,-28.182 -83.417,0 -151.04,12.618 -151.04,28.182 0,15.564 67.623,28.182 151.04,28.182 C -67.623,28.182 0,15.564 0,0" /></g><g
           transform="translate(1020.0254,1460.5928)"
           id="g48"><path
             id="path50"
             style="fill:#6d6f71;fill-opacity:1;fill-rule:nonzero;stroke:none"
             d="M 0,0 12.722,-66 H 61.667 L 40.296,0 Z" /></g><g
           transform="translate(1330.666,1190.6738)"
           id="g52"><path
             id="path54"
             style="fill:#808285;fill-opacity:1;fill-rule:nonzero;stroke:none"
             d="m 0,0 c -1.521,3.189 -3.551,6.02 -5.971,8.33 l 3.021,1.76 C -1.07,6.859 -0.11,3.38 0,0" /></g><g
           transform="translate(767.6357,1231.3237)"
           id="g56"><path
             id="path58"
             style="fill:#808285;fill-opacity:1;fill-rule:nonzero;stroke:none"
             d="M 0,0 C -3.39,-3.25 -6.03,-7.49 -7.54,-12.349 -7.81,-7.44 -6.14,-2.19 -2.511,2.12 Z" /></g><g
           transform="translate(1142.5459,1150.8008)"
           id="g60"><path
             id="path62"
             style="fill:#414142;fill-opacity:1;fill-rule:nonzero;stroke:none"
             d="m 0,0 c 0,-4.729 -4.495,-8.562 -10.041,-8.562 h -155.982 c -5.546,0 -10.041,3.833 -10.041,8.562 0,4.729 4.495,8.561 10.041,8.561 H -10.041 C -4.495,8.561 0,4.729 0,0" /></g><g
           transform="translate(1142.5459,1135.168)"
           id="g64"><path
             id="path66"
             style="fill:#414142;fill-opacity:1;fill-rule:nonzero;stroke:none"
             d="m 0,0 c 0,-4.729 -4.495,-8.563 -10.041,-8.563 h -155.982 c -5.546,0 -10.041,3.834 -10.041,8.563 0,4.728 4.495,8.561 10.041,8.561 H -10.041 C -4.495,8.561 0,4.728 0,0" /></g><g
           transform="translate(1142.5459,1120.0449)"
           id="g68"><path
             id="path70"
             style="fill:#414142;fill-opacity:1;fill-rule:nonzero;stroke:none"
             d="m 0,0 c 0,-4.729 -4.495,-8.561 -10.041,-8.561 h -155.982 c -5.546,0 -10.041,3.832 -10.041,8.561 0,4.729 4.495,8.561 10.041,8.561 H -10.041 C -4.495,8.561 0,4.729 0,0" /></g><g
           transform="translate(1009.8994,530.2344)"
           id="g72"><path
             id="path74"
             style="fill:#808285;fill-opacity:1;fill-rule:nonzero;stroke:none"
             d="m 0,0 -0.187,-45.04 c -0.022,-5.33 -12.23,-9.598 -27.269,-9.536 l -126.63,0.526 c -15.05,0.063 -27.223,4.432 -27.201,9.762 l 0.187,45.041 c 0.023,5.34 12.231,9.609 27.281,9.547 L -71,9.955 l -68.424,215.957 -0.74,2.333 c -2.779,9.961 -1.239,19.585 3.451,26.746 0.051,0.169 0.111,0.329 0.171,0.499 l 79.638,237.403 0.779,2.326 c 6.665,17.812 24.448,26.068 39.717,18.444 C -1.14,506.039 5.824,485.41 -0.849,467.617 L -1.89,465.112 -89.558,256.135 c 4.741,-4.719 8.415,-10.766 10.318,-17.604 l 0.638,-2.632 L -24.87,9.723 C -10.922,9.255 0.021,5.061 0,0" /></g><g
           transform="translate(1261.8359,529.9043)"
           id="g76"><path
             id="path78"
             style="fill:#808285;fill-opacity:1;fill-rule:nonzero;stroke:none"
             d="m 0,0 v -45.041 c 0,-5.33 -12.19,-9.648 -27.24,-9.648 h -126.63 c -15.05,0 -27.24,4.318 -27.24,9.648 V 0 c 0,3.77 6.08,7.029 14.96,8.619 l 65.849,232.801 0.66,2.369 c 1.611,5.022 4.101,9.34 7.221,12.83 l -72.06,224.18 -0.75,2.34 c -5.19,18.3 4.24,35.49 21.05,38.4 16.81,2.91 34.65,-9.57 39.829,-27.859 l 0.651,-2.631 58.38,-241.279 c 0.19,-0.67 0.36,-1.34 0.49,-2.01 3.979,-8.61 4.88,-19.08 1.729,-28.901 l -0.92,-2.548 L -119.28,9.66 h 92.04 C -12.19,9.66 0,5.34 0,0" /></g></g></g></g></svg>