<?xml version="1.0" encoding="UTF-8" standalone="no"?>
<svg
   xmlns:dc="http://purl.org/dc/elements/1.1/"
   xmlns:cc="http://creativecommons.org/ns#"
   xmlns:rdf="http://www.w3.org/1999/02/22-rdf-syntax-ns#"
   xmlns:svg="http://www.w3.org/2000/svg"
   xmlns="http://www.w3.org/2000/svg"
   viewBox="0 0 2592 3264"
   height="3264"
   width="2592"
   xml:space="preserve"
   id="svg2"
   version="1.1"><metadata
     id="metadata8"><rdf:RDF><cc:Work
         rdf:about=""><dc:format>image/svg+xml</dc:format><dc:type
           rdf:resource="http://purl.org/dc/dcmitype/StillImage" /></cc:Work></rdf:RDF></metadata><defs
     id="defs6"><clipPath
       id="clipPath22"
       clipPathUnits="userSpaceOnUse"><path
         id="path20"
         d="M 0,2448 H 1944 V 0 H 0 Z" /></clipPath></defs><g
     transform="matrix(1.3333333,0,0,-1.3333333,0,3264)"
     id="g10"><g
       transform="translate(1054.0049,1153.4941)"
       id="g12"><path
         id="path14"
         style="fill:#808285;fill-opacity:1;fill-rule:nonzero;stroke:none"
         d="m 0,0 0.009,82.01 -218.238,2.06 V 2.057 Z" /></g><g
       id="g16"><g
         clip-path="url(#clipPath22)"
         id="g18"><g
           transform="translate(835.7764,1156.582)"
           id="g24"><path
             id="path26"
             style="fill:#808285;fill-opacity:1;fill-rule:nonzero;stroke:none"
             d="M 0,0 C 0.045,4.742 48.935,8.127 109.196,7.559 169.456,6.99 218.272,2.686 218.229,-2.059 218.183,-6.803 169.296,-10.188 109.034,-9.619 48.772,-9.051 -0.045,-4.744 0,0" /></g><g
           transform="translate(835.7764,1238.5938)"
           id="g28"><path
             id="path30"
             style="fill:#939598;fill-opacity:1;fill-rule:nonzero;stroke:none"
             d="M 0,0 C 0.063,6.793 48.97,11.838 109.234,11.27 169.499,10.701 218.302,4.734 218.237,-2.059 218.173,-8.852 169.267,-13.898 109.003,-13.33 48.737,-12.76 -0.064,-6.793 0,0" /></g><g
           transform="translate(1036.582,1294.0029)"
           id="g32"><path
             id="path34"
             style="fill:#414142;fill-opacity:1;fill-rule:nonzero;stroke:none"
             d="m 0,0 c 0,-4.729 -4.495,-8.562 -10.041,-8.562 h -155.982 c -5.546,0 -10.041,3.833 -10.041,8.562 0,4.729 4.495,8.562 10.041,8.562 H -10.041 C -4.495,8.562 0,4.729 0,0" /></g><g
           transform="translate(1050.3799,1308.3086)"
           id="g36"><path
             id="path38"
             style="fill:#808285;fill-opacity:1;fill-rule:nonzero;stroke:none"
             d="m 0,0 c 0,-10.87 -47.228,-19.682 -105.485,-19.682 -58.257,0 -105.485,8.812 -105.485,19.682 0,10.87 47.228,19.682 105.485,19.682 C -47.228,19.682 0,10.87 0,0" /></g><g
           transform="translate(796.3564,1514.3936)"
           id="g40"><path
             id="path42"
             style="fill:#808285;fill-opacity:1;fill-rule:nonzero;stroke:none"
             d="M 0,0 43.054,-206.085 H 254.023 L 302.08,0 Z" /></g><g
           transform="translate(1098.4365,1514.3936)"
           id="g44"><path
             id="path46"
             style="fill:#939598;fill-opacity:1;fill-rule:nonzero;stroke:none"
             d="m 0,0 c 0,-15.564 -67.623,-28.182 -151.04,-28.182 -83.417,0 -151.04,12.618 -151.04,28.182 0,15.564 67.623,28.182 151.04,28.182 C -67.623,28.182 0,15.564 0,0" /></g><g
           transform="translate(914.0615,1586.6729)"
           id="g48"><path
             id="path50"
             style="fill:#6d6f71;fill-opacity:1;fill-rule:nonzero;stroke:none"
             d="M 0,0 12.722,-66 H 61.667 L 40.296,0 Z" /></g><g
           transform="translate(1224.7021,1316.7539)"
           id="g52"><path
             id="path54"
             style="fill:#808285;fill-opacity:1;fill-rule:nonzero;stroke:none"
             d="m 0,0 c -1.521,3.189 -3.551,6.02 -5.971,8.33 l 3.021,1.76 C -1.07,6.859 -0.11,3.38 0,0" /></g><g
           transform="translate(1124.9922,1508.9751)"
           id="g56"><path
             id="path58"
             style="fill:#939598;fill-opacity:1;fill-rule:nonzero;stroke:none"
             d="m 0,0 c 7.828,-13.453 4.484,-29.997 -7.469,-36.952 -11.953,-6.955 -27.988,-1.687 -35.816,11.765 -7.828,13.453 -4.484,29.998 7.469,36.953 C -23.863,18.721 -7.827,13.453 0,0" /></g><g
           transform="translate(824.8242,1489.4136)"
           id="g60"><path
             id="path62"
             style="fill:#939598;fill-opacity:1;fill-rule:nonzero;stroke:none"
             d="m 0,0 c -10.031,-11.901 -26.735,-14.323 -37.309,-5.41 -10.574,8.914 -11.013,25.786 -0.982,37.687 10.031,11.901 26.736,14.322 37.31,5.41 C 9.593,28.773 10.033,11.9 0,0" /></g><g
           transform="translate(1036.582,1276.8809)"
           id="g64"><path
             id="path66"
             style="fill:#414142;fill-opacity:1;fill-rule:nonzero;stroke:none"
             d="m 0,0 c 0,-4.729 -4.495,-8.562 -10.041,-8.562 h -155.982 c -5.546,0 -10.041,3.833 -10.041,8.562 0,4.729 4.495,8.561 10.041,8.561 H -10.041 C -4.495,8.561 0,4.729 0,0" /></g><g
           transform="translate(1036.582,1261.248)"
           id="g68"><path
             id="path70"
             style="fill:#414142;fill-opacity:1;fill-rule:nonzero;stroke:none"
             d="m 0,0 c 0,-4.729 -4.495,-8.563 -10.041,-8.563 h -155.982 c -5.546,0 -10.041,3.834 -10.041,8.563 0,4.728 4.495,8.561 10.041,8.561 H -10.041 C -4.495,8.561 0,4.728 0,0" /></g><g
           transform="translate(1036.582,1246.125)"
           id="g72"><path
             id="path74"
             style="fill:#414142;fill-opacity:1;fill-rule:nonzero;stroke:none"
             d="m 0,0 c 0,-4.729 -4.495,-8.561 -10.041,-8.561 h -155.982 c -5.546,0 -10.041,3.832 -10.041,8.561 0,4.729 4.495,8.561 10.041,8.561 H -10.041 C -4.495,8.561 0,4.729 0,0" /></g></g></g></g></svg>