<?xml version="1.0" encoding="UTF-8" standalone="no"?>
<svg
   xmlns:dc="http://purl.org/dc/elements/1.1/"
   xmlns:cc="http://creativecommons.org/ns#"
   xmlns:rdf="http://www.w3.org/1999/02/22-rdf-syntax-ns#"
   xmlns:svg="http://www.w3.org/2000/svg"
   xmlns="http://www.w3.org/2000/svg"
   viewBox="0 0 2592 3264"
   height="3264"
   width="2592"
   xml:space="preserve"
   id="svg2"
   version="1.1"><metadata
     id="metadata8"><rdf:RDF><cc:Work
         rdf:about=""><dc:format>image/svg+xml</dc:format><dc:type
           rdf:resource="http://purl.org/dc/dcmitype/StillImage" /></cc:Work></rdf:RDF></metadata><defs
     id="defs6"><clipPath
       id="clipPath18"
       clipPathUnits="userSpaceOnUse"><path
         id="path16"
         d="M 0,2448 H 1944 V 0 H 0 Z" /></clipPath></defs><g
     transform="matrix(1.3333333,0,0,-1.3333333,0,3264)"
     id="g10"><g
       id="g12"><g
         clip-path="url(#clipPath18)"
         id="g14"><g
           transform="translate(1037.2373,1629.5127)"
           id="g20"><path
             id="path22"
             style="fill:#939598;fill-opacity:1;fill-rule:nonzero;stroke:none"
             d="m 0,0 v -33.59 c 0,-13.26 -47.689,-24.01 -106.51,-24.01 -58.83,0 -106.51,10.75 -106.51,24.01 V 0 c 0,-13.26 47.69,-24.01 106.51,-24.01 C -47.689,-24.01 0,-13.26 0,0" /></g><g
           transform="translate(1037.2373,1629.5127)"
           id="g24"><path
             id="path26"
             style="fill:#6d6f71;fill-opacity:1;fill-rule:nonzero;stroke:none"
             d="m 0,0 c 0,-13.26 -47.689,-24.01 -106.51,-24.01 -58.82,0 -106.51,10.75 -106.51,24.01 0,13.25 47.69,24 106.51,24 C -47.689,24 0,13.25 0,0" /></g><g
           transform="translate(1037.2393,1828.5786)"
           id="g28"><path
             id="path30"
             style="fill:#939598;fill-opacity:1;fill-rule:nonzero;stroke:none"
             d="m 0,0 v -185.43 c 0,-13.26 -47.689,-24.01 -106.51,-24.01 -58.82,0 -106.51,10.75 -106.51,24.01 V 0 Z" /></g><g
           transform="translate(1037.2393,1828.5786)"
           id="g32"><path
             id="path34"
             style="fill:#939598;fill-opacity:1;fill-rule:nonzero;stroke:none"
             d="m 0,0 v -185.43 c 0,13.25 -47.689,24 -106.51,24 -58.82,0 -106.51,-10.75 -106.51,-24 V 0 Z" /></g><g
           transform="translate(1037.2383,1828.5776)"
           id="g36"><path
             id="path38"
             style="fill:#6d6f71;fill-opacity:1;fill-rule:nonzero;stroke:none"
             d="m 0,0 c 0,-13.256 -47.687,-24.002 -106.511,-24.002 -58.824,0 -106.51,10.746 -106.51,24.002 0,13.256 47.686,24.002 106.51,24.002 C -47.687,24.002 0,13.256 0,0" /></g><g
           transform="translate(914.0635,1740.064)"
           id="g40"><path
             id="path42"
             style="fill:#fff200;fill-opacity:1;fill-rule:nonzero;stroke:none"
             d="m 0,0 c 0,-18.226 -12.686,-33 -28.334,-33 -15.647,0 -28.333,14.774 -28.333,33 0,18.226 12.686,33 28.333,33 C -12.686,33 0,18.226 0,0" /></g><g
           transform="translate(1004.0635,1740.064)"
           id="g44"><path
             id="path46"
             style="fill:#fff200;fill-opacity:1;fill-rule:nonzero;stroke:none"
             d="m 0,0 c 0,-18.226 -12.686,-33 -28.334,-33 -15.647,0 -28.333,14.774 -28.333,33 0,18.226 12.686,33 28.333,33 C -12.686,33 0,18.226 0,0" /></g><g
           transform="translate(1074.6035,1810.6035)"
           id="g48"><path
             id="path50"
             style="fill:#231f20;fill-opacity:1;fill-rule:nonzero;stroke:none"
             d="m 0,0 c -3.459,-0.724 -16.937,-1.878 -35.541,-3 -27.739,-1.67 -66.885,-3.281 -101.117,-3.329 -33.299,-0.038 -75.233,4.175 -108.921,9.776 -24.153,4.011 -44.074,8.74 -53.531,13.129 -22.636,10.5 -34.675,15.436 -32.327,24.716 2.689,10.634 34.642,15.243 53.916,14.16 4.013,-0.229 16.271,-0.608 33.487,-1.107 55.243,-1.583 161.542,-4.37 210.293,-7.161 9.005,-0.519 16.047,-1.034 20.442,-1.54 C 22.353,41.52 43.74,39.049 45.591,25.675 47.439,12.301 8.615,1.812 0,0" /></g><g
           transform="translate(1043.4424,1845.9668)"
           id="g52"><path
             id="path54"
             style="fill:#414142;fill-opacity:1;fill-rule:nonzero;stroke:none"
             d="m 0,0 c -0.2,-9.138 -1.627,-17.978 -4.116,-26.366 -27.738,-1.671 -66.886,-3.281 -101.117,-3.329 -33.3,-0.038 -75.232,4.174 -108.922,9.775 -1.831,7.933 -2.71,16.205 -2.524,24.683 0.2,9.087 1.603,17.868 4.071,26.216 13.124,44.433 56.173,76.484 106.547,75.377 C -54.743,105.229 -12.503,70.042 -2.315,23.817 -0.63,16.148 0.181,8.169 0,0" /></g><g
           transform="translate(925.6934,1672.9736)"
           id="g56"><path
             id="path58"
             style="fill:#414142;fill-opacity:1;fill-rule:nonzero;stroke:none"
             d="M 0,0 C -4.407,10.961 -15.334,24.18 -34.667,16.757 -54,9.333 -77.334,-14.667 -99.334,-4.667 c -22,10 -32,21.424 -32,21.424 0,0 -1.334,-10.757 5.333,-19.424 6.667,-8.666 22.001,-18 39.334,-16.666 17.333,1.333 45.999,8.666 56.666,6 10.667,-2.667 23.334,-9.82 27.334,-2.91 C 1.333,-9.333 1.999,-4.972 0,0" /></g><g
           transform="translate(927.877,1672.9736)"
           id="g60"><path
             id="path62"
             style="fill:#414142;fill-opacity:1;fill-rule:nonzero;stroke:none"
             d="M 0,0 C 4.407,10.961 15.334,24.18 34.667,16.757 54,9.333 77.334,-14.667 99.334,-4.667 c 22,10 32,21.424 32,21.424 0,0 1.334,-10.757 -5.333,-19.424 -6.667,-8.666 -22.001,-18 -39.334,-16.666 -17.333,1.333 -45.999,8.666 -56.666,6 C 19.334,-16 6.667,-23.153 2.667,-16.243 -1.333,-9.333 -1.999,-4.972 0,0" /></g></g></g></g></svg>