<?xml version="1.0" encoding="UTF-8" standalone="no"?>
<svg
   xmlns:dc="http://purl.org/dc/elements/1.1/"
   xmlns:cc="http://creativecommons.org/ns#"
   xmlns:rdf="http://www.w3.org/1999/02/22-rdf-syntax-ns#"
   xmlns:svg="http://www.w3.org/2000/svg"
   xmlns="http://www.w3.org/2000/svg"
   viewBox="0 0 2592 3264"
   height="3264"
   width="2592"
   xml:space="preserve"
   id="svg2"
   version="1.1"><metadata
     id="metadata8"><rdf:RDF><cc:Work
         rdf:about=""><dc:format>image/svg+xml</dc:format><dc:type
           rdf:resource="http://purl.org/dc/dcmitype/StillImage" /></cc:Work></rdf:RDF></metadata><defs
     id="defs6"><clipPath
       id="clipPath18"
       clipPathUnits="userSpaceOnUse"><path
         id="path16"
         d="M 0,2448 H 1944 V 0 H 0 Z" /></clipPath></defs><g
     transform="matrix(1.3333333,0,0,-1.3333333,0,3264)"
     id="g10"><g
       id="g12"><g
         clip-path="url(#clipPath18)"
         id="g14"><g
           transform="translate(810.5957,1017.8848)"
           id="g20"><path
             id="path22"
             style="fill:#808285;fill-opacity:1;fill-rule:nonzero;stroke:none"
             d="m 0,0 -8.721,-58.721 c -1.029,-6.949 -6.899,-11.84 -13.119,-10.92 l -52.301,7.77 c -6.209,0.92 -10.41,7.31 -9.369,14.26 l 8.72,58.72 c 1.03,6.95 6.899,11.84 13.12,10.911 l 3.68,-0.551 6.06,170.42 0.07,2 c 0.18,2.509 0.639,4.92 1.36,7.201 1.51,4.859 4.15,9.099 7.54,12.349 l -2.511,2.12 L 81.9,377.729 120.189,345.449 -5.6,207.409 c 2.73,-4.88 4.129,-10.78 3.69,-17.02 L -2.141,188.169 -20.95,15.969 -9.37,14.25 C -3.16,13.33 1.04,6.949 0,0" /></g><g
           transform="translate(1143.2012,1503.4326)"
           id="g24"><path
             id="path26"
             style="fill:#939598;fill-opacity:1;fill-rule:nonzero;stroke:none"
             d="m 0,0 v -33.59 c 0,-13.26 -47.689,-24.01 -106.51,-24.01 -58.83,0 -106.51,10.75 -106.51,24.01 V 0 c 0,-13.26 47.69,-24.01 106.51,-24.01 C -47.689,-24.01 0,-13.26 0,0" /></g><g
           transform="translate(1143.2012,1503.4326)"
           id="g28"><path
             id="path30"
             style="fill:#6d6f71;fill-opacity:1;fill-rule:nonzero;stroke:none"
             d="m 0,0 c 0,-13.26 -47.689,-24.01 -106.51,-24.01 -58.82,0 -106.51,10.75 -106.51,24.01 0,13.25 47.69,24 106.51,24 C -47.689,24 0,13.25 0,0" /></g><g
           transform="translate(1143.2031,1702.4985)"
           id="g32"><path
             id="path34"
             style="fill:#939598;fill-opacity:1;fill-rule:nonzero;stroke:none"
             d="m 0,0 v -185.43 c 0,-13.26 -47.689,-24.01 -106.51,-24.01 -58.82,0 -106.51,10.75 -106.51,24.01 V 0 Z" /></g><g
           transform="translate(1143.2031,1702.4985)"
           id="g36"><path
             id="path38"
             style="fill:#939598;fill-opacity:1;fill-rule:nonzero;stroke:none"
             d="m 0,0 v -185.43 c 0,13.25 -47.689,24 -106.51,24 -58.82,0 -106.51,-10.75 -106.51,-24 V 0 Z" /></g><g
           transform="translate(1143.2021,1702.4976)"
           id="g40"><path
             id="path42"
             style="fill:#6d6f71;fill-opacity:1;fill-rule:nonzero;stroke:none"
             d="m 0,0 c 0,-13.256 -47.687,-24.002 -106.511,-24.002 -58.824,0 -106.51,10.746 -106.51,24.002 0,13.256 47.686,24.002 106.51,24.002 C -47.687,24.002 0,13.256 0,0" /></g><g
           transform="translate(1020.0273,1613.9839)"
           id="g44"><path
             id="path46"
             style="fill:#fff200;fill-opacity:1;fill-rule:nonzero;stroke:none"
             d="m 0,0 c 0,-18.226 -12.686,-33 -28.334,-33 -15.647,0 -28.333,14.774 -28.333,33 0,18.226 12.686,33 28.333,33 C -12.686,33 0,18.226 0,0" /></g><g
           transform="translate(1110.0273,1613.9839)"
           id="g48"><path
             id="path50"
             style="fill:#fff200;fill-opacity:1;fill-rule:nonzero;stroke:none"
             d="m 0,0 c 0,-18.226 -12.686,-33 -28.334,-33 -15.647,0 -28.333,14.774 -28.333,33 0,18.226 12.686,33 28.333,33 C -12.686,33 0,18.226 0,0" /></g><g
           transform="translate(1180.5674,1684.5234)"
           id="g52"><path
             id="path54"
             style="fill:#231f20;fill-opacity:1;fill-rule:nonzero;stroke:none"
             d="m 0,0 c -3.459,-0.724 -16.937,-1.878 -35.541,-3 -27.739,-1.67 -66.885,-3.281 -101.117,-3.329 -33.299,-0.038 -75.233,4.175 -108.921,9.776 -24.153,4.011 -44.074,8.74 -53.531,13.129 -22.636,10.5 -34.675,15.436 -32.327,24.716 2.689,10.634 34.642,15.243 53.916,14.16 4.013,-0.229 16.271,-0.608 33.487,-1.107 55.243,-1.583 161.542,-4.37 210.293,-7.161 9.005,-0.519 16.047,-1.034 20.442,-1.54 C 22.353,41.52 43.74,39.049 45.591,25.675 47.439,12.301 8.615,1.812 0,0" /></g><g
           transform="translate(1149.4063,1719.8867)"
           id="g56"><path
             id="path58"
             style="fill:#414142;fill-opacity:1;fill-rule:nonzero;stroke:none"
             d="m 0,0 c -0.2,-9.138 -1.627,-17.978 -4.116,-26.366 -27.738,-1.671 -66.886,-3.281 -101.117,-3.329 -33.3,-0.038 -75.232,4.174 -108.922,9.775 -1.831,7.933 -2.71,16.205 -2.524,24.683 0.2,9.087 1.603,17.868 4.071,26.216 13.124,44.433 56.173,76.484 106.547,75.377 C -54.743,105.229 -12.503,70.042 -2.315,23.817 -0.63,16.148 0.181,8.169 0,0" /></g><g
           transform="translate(1031.6572,1546.8936)"
           id="g60"><path
             id="path62"
             style="fill:#414142;fill-opacity:1;fill-rule:nonzero;stroke:none"
             d="M 0,0 C -4.407,10.961 -15.334,24.18 -34.667,16.757 -54,9.333 -77.334,-14.667 -99.334,-4.667 c -22,10 -32,21.424 -32,21.424 0,0 -1.334,-10.757 5.333,-19.424 6.667,-8.666 22.001,-18 39.334,-16.666 17.333,1.333 45.999,8.666 56.666,6 10.667,-2.667 23.334,-9.82 27.334,-2.91 C 1.333,-9.333 1.999,-4.972 0,0" /></g><g
           transform="translate(1033.8408,1546.8936)"
           id="g64"><path
             id="path66"
             style="fill:#414142;fill-opacity:1;fill-rule:nonzero;stroke:none"
             d="M 0,0 C 4.407,10.961 15.334,24.18 34.667,16.757 54,9.333 77.334,-14.667 99.334,-4.667 c 22,10 32,21.424 32,21.424 0,0 1.334,-10.757 -5.333,-19.424 -6.667,-8.666 -22.001,-18 -39.334,-16.666 -17.333,1.333 -45.999,8.666 -56.666,6 C 19.334,-16 6.667,-23.153 2.667,-16.243 -1.333,-9.333 -1.999,-4.972 0,0" /></g><g
           transform="translate(1330.666,1190.6738)"
           id="g68"><path
             id="path70"
             style="fill:#808285;fill-opacity:1;fill-rule:nonzero;stroke:none"
             d="m 0,0 c -1.521,3.189 -3.551,6.02 -5.971,8.33 l 3.021,1.76 C -1.07,6.859 -0.11,3.38 0,0" /></g><g
           transform="translate(1350.5908,973.2246)"
           id="g72"><path
             id="path74"
             style="fill:#808285;fill-opacity:1;fill-rule:nonzero;stroke:none"
             d="m 0,0 -0.246,-59.37 c -0.029,-7.02 -5.143,-12.698 -11.423,-12.672 l -52.869,0.219 c -6.28,0.026 -11.346,5.747 -11.317,12.766 l 0.247,59.37 c 0.029,7.02 5.142,12.698 11.422,12.672 l 18.72,-0.078 -20.224,186.866 -0.222,1.992 c -0.568,7.712 1.682,14.903 5.765,20.306 l -100.989,162.001 43.385,25.01 96.002,-182.53 -3.027,-1.748 c 2.41,-2.321 4.428,-5.158 5.935,-8.355 1.576,-3.327 2.581,-7.051 2.875,-11.021 l 0.08,-2.222 6.598,-190.658 C -3.981,11.456 0.026,6.238 0,0" /></g><g
           transform="translate(1230.9561,1382.895)"
           id="g76"><path
             id="path78"
             style="fill:#939598;fill-opacity:1;fill-rule:nonzero;stroke:none"
             d="m 0,0 c 7.828,-13.453 4.484,-29.997 -7.469,-36.952 -11.953,-6.955 -27.988,-1.687 -35.816,11.765 -7.828,13.453 -4.484,29.998 7.469,36.953 C -23.863,18.721 -7.827,13.453 0,0" /></g><g
           transform="translate(767.6357,1231.3237)"
           id="g80"><path
             id="path82"
             style="fill:#808285;fill-opacity:1;fill-rule:nonzero;stroke:none"
             d="M 0,0 C -3.39,-3.25 -6.03,-7.49 -7.54,-12.349 -7.81,-7.44 -6.14,-2.19 -2.511,2.12 Z" /></g><g
           transform="translate(930.7881,1363.3335)"
           id="g84"><path
             id="path86"
             style="fill:#939598;fill-opacity:1;fill-rule:nonzero;stroke:none"
             d="m 0,0 c -10.031,-11.901 -26.735,-14.323 -37.309,-5.41 -10.574,8.914 -11.013,25.786 -0.982,37.687 10.031,11.901 26.736,14.322 37.31,5.41 C 9.593,28.773 10.033,11.9 0,0" /></g></g></g></g></svg>