<?xml version="1.0" encoding="UTF-8" standalone="no"?>
<svg
   xmlns:dc="http://purl.org/dc/elements/1.1/"
   xmlns:cc="http://creativecommons.org/ns#"
   xmlns:rdf="http://www.w3.org/1999/02/22-rdf-syntax-ns#"
   xmlns:svg="http://www.w3.org/2000/svg"
   xmlns="http://www.w3.org/2000/svg"
   viewBox="0 0 2592 3264"
   height="3264"
   width="2592"
   xml:space="preserve"
   id="svg2"
   version="1.1"><metadata
     id="metadata8"><rdf:RDF><cc:Work
         rdf:about=""><dc:format>image/svg+xml</dc:format><dc:type
           rdf:resource="http://purl.org/dc/dcmitype/StillImage" /></cc:Work></rdf:RDF></metadata><defs
     id="defs6"><clipPath
       id="clipPath18"
       clipPathUnits="userSpaceOnUse"><path
         id="path16"
         d="M 0,2448 H 1944 V 0 H 0 Z" /></clipPath></defs><g
     transform="matrix(1.3333333,0,0,-1.3333333,0,3264)"
     id="g10"><g
       id="g12"><g
         clip-path="url(#clipPath18)"
         id="g14"><g
           transform="translate(704.6318,1143.9648)"
           id="g20"><path
             id="path22"
             style="fill:#808285;fill-opacity:1;fill-rule:nonzero;stroke:none"
             d="m 0,0 -8.721,-58.721 c -1.029,-6.949 -6.899,-11.84 -13.119,-10.92 l -52.301,7.77 c -6.209,0.92 -10.41,7.31 -9.369,14.26 l 8.72,58.72 c 1.03,6.95 6.899,11.84 13.12,10.911 l 3.68,-0.551 6.06,170.42 0.07,2 c 0.18,2.509 0.639,4.92 1.36,7.201 1.51,4.859 4.15,9.099 7.54,12.349 l -2.511,2.12 L 81.9,377.729 120.189,345.449 -5.6,207.409 c 2.73,-4.88 4.129,-10.78 3.69,-17.02 L -2.141,188.169 -20.95,15.969 -9.37,14.25 C -3.16,13.33 1.04,6.949 0,0" /></g><g
           transform="translate(661.6719,1357.4038)"
           id="g24"><path
             id="path26"
             style="fill:#808285;fill-opacity:1;fill-rule:nonzero;stroke:none"
             d="M 0,0 C -3.39,-3.25 -6.03,-7.49 -7.54,-12.349 -7.81,-7.44 -6.14,-2.19 -2.511,2.12 Z" /></g><g
           transform="translate(824.8242,1489.4136)"
           id="g28"><path
             id="path30"
             style="fill:#939598;fill-opacity:1;fill-rule:nonzero;stroke:none"
             d="m 0,0 c -10.031,-11.901 -26.735,-14.323 -37.309,-5.41 -10.574,8.914 -11.013,25.786 -0.982,37.687 10.031,11.901 26.736,14.322 37.31,5.41 C 9.593,28.773 10.033,11.9 0,0" /></g><g
           transform="translate(1155.8721,655.9844)"
           id="g32"><path
             id="path34"
             style="fill:#808285;fill-opacity:1;fill-rule:nonzero;stroke:none"
             d="m 0,0 v -45.041 c 0,-5.33 -12.19,-9.648 -27.24,-9.648 h -126.63 c -15.05,0 -27.24,4.318 -27.24,9.648 V 0 c 0,3.77 6.08,7.029 14.96,8.619 l 65.849,232.801 0.66,2.369 c 1.611,5.022 4.101,9.34 7.221,12.83 l -72.06,224.18 -0.75,2.34 c -5.19,18.3 4.24,35.49 21.05,38.4 16.81,2.91 34.65,-9.57 39.829,-27.859 l 0.651,-2.631 58.38,-241.279 c 0.19,-0.67 0.36,-1.34 0.49,-2.01 3.979,-8.61 4.88,-19.08 1.729,-28.901 l -0.92,-2.548 L -119.28,9.66 h 92.04 C -12.19,9.66 0,5.34 0,0" /></g></g></g></g></svg>