<?xml version="1.0" encoding="UTF-8" standalone="no"?>
<svg
   xmlns:dc="http://purl.org/dc/elements/1.1/"
   xmlns:cc="http://creativecommons.org/ns#"
   xmlns:rdf="http://www.w3.org/1999/02/22-rdf-syntax-ns#"
   xmlns:svg="http://www.w3.org/2000/svg"
   xmlns="http://www.w3.org/2000/svg"
   viewBox="0 0 2592 3264"
   height="3264"
   width="2592"
   xml:space="preserve"
   id="svg2"
   version="1.1"><metadata
     id="metadata8"><rdf:RDF><cc:Work
         rdf:about=""><dc:format>image/svg+xml</dc:format><dc:type
           rdf:resource="http://purl.org/dc/dcmitype/StillImage" /></cc:Work></rdf:RDF></metadata><defs
     id="defs6"><clipPath
       id="clipPath18"
       clipPathUnits="userSpaceOnUse"><path
         id="path16"
         d="M 0,2448 H 1944 V 0 H 0 Z" /></clipPath></defs><g
     transform="matrix(1.3333333,0,0,-1.3333333,0,3264)"
     id="g10"><g
       id="g12"><g
         clip-path="url(#clipPath18)"
         id="g14"><g
           transform="translate(1224.7021,1316.7539)"
           id="g20"><path
             id="path22"
             style="fill:#808285;fill-opacity:1;fill-rule:nonzero;stroke:none"
             d="m 0,0 c -1.521,3.189 -3.551,6.02 -5.971,8.33 l 3.021,1.76 C -1.07,6.859 -0.11,3.38 0,0" /></g><g
           transform="translate(1244.4414,1100.3848)"
           id="g24"><path
             id="path26"
             style="fill:#808285;fill-opacity:1;fill-rule:nonzero;stroke:none"
             d="m 0,0 v -59.371 c 0,-7.02 -5.09,-12.719 -11.37,-12.719 h -52.869 c -6.281,0 -11.37,5.699 -11.37,12.719 V 0 c 0,7.02 5.089,12.719 11.37,12.719 h 18.719 l -21,186.78 -0.23,1.99 c -0.6,7.71 1.62,14.91 5.681,20.33 l -101.66,161.58 43.28,25.19 96.76,-182.13 -3.021,-1.76 c 2.42,-2.31 4.45,-5.14 5.971,-8.33 1.59,-3.32 2.609,-7.04 2.92,-11.01 l 0.09,-2.22 L -9.34,12.51 C -4.029,11.439 0,6.238 0,0" /></g><g
           transform="translate(1124.9922,1508.9751)"
           id="g28"><path
             id="path30"
             style="fill:#939598;fill-opacity:1;fill-rule:nonzero;stroke:none"
             d="m 0,0 c 7.828,-13.453 4.484,-29.997 -7.469,-36.952 -11.953,-6.955 -27.988,-1.687 -35.816,11.765 -7.828,13.453 -4.484,29.998 7.469,36.953 C -23.863,18.721 -7.827,13.453 0,0" /></g><g
           transform="translate(905.5918,655.9844)"
           id="g32"><path
             id="path34"
             style="fill:#808285;fill-opacity:1;fill-rule:nonzero;stroke:none"
             d="m 0,0 v -45.041 c 0,-5.33 -12.19,-9.648 -27.229,-9.648 H -153.86 c -15.05,0 -27.241,4.318 -27.241,9.648 V 0 c 0,5.34 12.191,9.66 27.241,9.66 h 82.82 l -69.32,215.67 -0.75,2.33 c -2.821,9.949 -1.321,19.58 3.339,26.76 0.051,0.17 0.111,0.33 0.17,0.5 l 78.651,237.73 0.769,2.33 c 6.591,17.84 24.341,26.17 39.641,18.61 15.3,-7.561 22.35,-28.16 15.75,-45.981 L -3.82,465.1 -90.62,255.76 c 4.76,-4.699 8.46,-10.731 10.391,-17.561 L -79.58,235.57 -24.91,9.619 C -10.96,9.209 0,5.061 0,0" /></g></g></g></g></svg>