<?xml version="1.0" encoding="UTF-8" standalone="no"?>
<svg
   xmlns:dc="http://purl.org/dc/elements/1.1/"
   xmlns:cc="http://creativecommons.org/ns#"
   xmlns:rdf="http://www.w3.org/1999/02/22-rdf-syntax-ns#"
   xmlns:svg="http://www.w3.org/2000/svg"
   xmlns="http://www.w3.org/2000/svg"
   viewBox="0 0 2592 3264"
   height="3264"
   width="2592"
   xml:space="preserve"
   id="svg2"
   version="1.1"><metadata
     id="metadata8"><rdf:RDF><cc:Work
         rdf:about=""><dc:format>image/svg+xml</dc:format><dc:type
           rdf:resource="http://purl.org/dc/dcmitype/StillImage" /></cc:Work></rdf:RDF></metadata><defs
     id="defs6" /><g
     transform="matrix(1.3333333,0,0,-1.3333333,0,3264)"
     id="g10"><g
       transform="translate(846.4961,1495.5854)"
       id="g12"><path
         id="path14"
         style="fill:#603912;fill-opacity:1;fill-rule:nonzero;stroke:none"
         d="M 0,0 38.614,-40.094 170.5,-63 210.5,-98 195.094,-518.083 -10.5,-922 l -333,421.917 z" /></g><g
       transform="translate(368.9961,1417.5854)"
       id="g16"><path
         id="path18"
         style="fill:#8b5d3b;fill-opacity:1;fill-rule:nonzero;stroke:none"
         d="m 0,0 116,-442 18,-364 h 16 L 132,-432 16,-10 460,298 v 18 z" /></g><g
       transform="translate(912.9961,1387.5854)"
       id="g20"><path
         id="path22"
         style="fill:#ffffff;fill-opacity:1;fill-rule:nonzero;stroke:none"
         d="m 0,0 112,10 -196,-492 -182,40 z" /></g><g
       transform="translate(368.9961,1417.5854)"
       id="g24"><path
         id="path26"
         style="fill:#754c29;fill-opacity:1;fill-rule:nonzero;stroke:none"
         d="M 0,0 -168,78 292,336.143 460,316 Z" /></g><g
       transform="translate(502.9961,611.5859)"
       id="g28"><path
         id="path30"
         style="fill:#603912;fill-opacity:1;fill-rule:nonzero;stroke:none"
         d="m 0,0 -18,364 -116,442 -168,78 60,-836 z" /></g><g
       transform="translate(808.937,1701.6704)"
       id="g32"><path
         id="path34"
         style="fill:#754c29;fill-opacity:1;fill-rule:nonzero;stroke:none"
         d="m 0,0 86.059,-234.085 -394,-481.999 -116,421.999 z" /></g><g
       transform="translate(894.9961,1467.5854)"
       id="g36"><path
         id="path38"
         style="fill:#8b5d3b;fill-opacity:1;fill-rule:nonzero;stroke:none"
         d="m 0,0 130,-26 32,-44 h -18 l -22,35 -131.886,22.906 z" /></g><g
       transform="translate(500.9961,985.5859)"
       id="g40"><path
         id="path42"
         style="fill:#754c29;fill-opacity:1;fill-rule:nonzero;stroke:none"
         d="m 0,0 318,-80 17,-66 v -266 l -317,38 z" /></g><g
       transform="translate(856.9961,867.5859)"
       id="g44"><path
         id="path46"
         style="fill:#8b5d3b;fill-opacity:1;fill-rule:nonzero;stroke:none"
         d="m 0,0 v -270 l -21,-24 v 266" /></g><g
       transform="translate(620.9961,985.5859)"
       id="g48"><path
         id="path50"
         style="fill:#8b5d3b;fill-opacity:1;fill-rule:nonzero;stroke:none"
         d="M 0,0 -106,145 208,516 264.114,412 Z" /></g><g
       transform="translate(620.9961,985.5859)"
       id="g52"><path
         id="path54"
         style="fill:#603912;fill-opacity:1;fill-rule:nonzero;stroke:none"
         d="m 0,0 h -22 l -103,150 19,-5 z" /></g><g
       transform="translate(828.9961,1501.5854)"
       id="g56"><path
         id="path58"
         style="fill:#603912;fill-opacity:1;fill-rule:nonzero;stroke:none"
         d="m 0,0 -17,-6 -316,-360 19,-5 z" /></g><g
       transform="translate(912.9961,1387.5854)"
       id="g60"><path
         id="path62"
         style="fill:none;stroke:#231f20;stroke-width:7;stroke-linecap:butt;stroke-linejoin:miter;stroke-miterlimit:10;stroke-dasharray:none;stroke-opacity:1"
         d="M 0,0 112,10" /></g><g
       transform="translate(828.9961,905.5859)"
       id="g64"><path
         id="path66"
         style="fill:none;stroke:#231f20;stroke-width:7;stroke-linecap:butt;stroke-linejoin:miter;stroke-miterlimit:10;stroke-dasharray:none;stroke-opacity:1"
         d="M 0,0 196,492" /></g><g
       transform="translate(500.9961,985.5859)"
       id="g68"><path
         id="path70"
         style="fill:#8b5d3b;fill-opacity:1;fill-rule:nonzero;stroke:none"
         d="M 0,0 14,17.127 335,-62.43 356,-118 335,-146 318,-80 Z" /></g><g
       transform="translate(659.7808,966.8301)"
       id="g72"><path
         id="path74"
         style="fill:none;stroke:#231f20;stroke-width:5;stroke-linecap:butt;stroke-linejoin:miter;stroke-miterlimit:10;stroke-dasharray:none;stroke-opacity:1"
         d="M 0,0 253.215,420.755" /></g><g
       transform="translate(676.1768,994.0742)"
       id="g76"><path
         id="path78"
         style="fill:none;stroke:#231f20;stroke-width:5;stroke-linecap:butt;stroke-linejoin:miter;stroke-miterlimit:10;stroke-dasharray:none;stroke-opacity:1"
         d="M 0,0 177.217,-27.244" /></g><g
       transform="translate(716.2041,1060.5859)"
       id="g80"><path
         id="path82"
         style="fill:none;stroke:#231f20;stroke-width:5;stroke-linecap:butt;stroke-linejoin:miter;stroke-miterlimit:10;stroke-dasharray:none;stroke-opacity:1"
         d="M 0,0 168.906,-14.143" /></g><g
       transform="translate(700.0532,1033.748)"
       id="g84"><path
         id="path86"
         style="fill:none;stroke:#231f20;stroke-width:5;stroke-linecap:butt;stroke-linejoin:miter;stroke-miterlimit:10;stroke-dasharray:none;stroke-opacity:1"
         d="M 0,0 171.69,-20.859" /></g><g
       transform="translate(732.3315,1087.3828)"
       id="g88"><path
         id="path90"
         style="fill:none;stroke:#231f20;stroke-width:5;stroke-linecap:butt;stroke-linejoin:miter;stroke-miterlimit:10;stroke-dasharray:none;stroke-opacity:1"
         d="M 0,0 162.665,-6.797" /></g><g
       transform="translate(752.9961,1121.5859)"
       id="g92"><path
         id="path94"
         style="fill:none;stroke:#231f20;stroke-width:5;stroke-linecap:butt;stroke-linejoin:miter;stroke-miterlimit:10;stroke-dasharray:none;stroke-opacity:1"
         d="M 0,0 160,-5.143" /></g><g
       transform="translate(770.9687,1151.5859)"
       id="g96"><path
         id="path98"
         style="fill:none;stroke:#231f20;stroke-width:5;stroke-linecap:butt;stroke-linejoin:miter;stroke-miterlimit:10;stroke-dasharray:none;stroke-opacity:1"
         d="M 0,0 H 156.027" /></g><g
       transform="translate(789.0161,1181.5742)"
       id="g100"><path
         id="path102"
         style="fill:none;stroke:#231f20;stroke-width:5;stroke-linecap:butt;stroke-linejoin:miter;stroke-miterlimit:10;stroke-dasharray:none;stroke-opacity:1"
         d="M 0,0 150.558,1.586" /></g><g
       transform="translate(804.667,1207.5801)"
       id="g104"><path
         id="path106"
         style="fill:none;stroke:#231f20;stroke-width:5;stroke-linecap:butt;stroke-linejoin:miter;stroke-miterlimit:10;stroke-dasharray:none;stroke-opacity:1"
         d="M 0,0 146.865,5.596" /></g><g
       transform="translate(818.8394,1231.5854)"
       id="g108"><path
         id="path110"
         style="fill:none;stroke:#231f20;stroke-width:5;stroke-linecap:butt;stroke-linejoin:miter;stroke-miterlimit:10;stroke-dasharray:none;stroke-opacity:1"
         d="M 0,0 144.239,10.571" /></g><g
       transform="translate(834.9961,1257.9771)"
       id="g112"><path
         id="path114"
         style="fill:none;stroke:#231f20;stroke-width:5;stroke-linecap:butt;stroke-linejoin:miter;stroke-miterlimit:10;stroke-dasharray:none;stroke-opacity:1"
         d="M 0,0 140.793,16.09" /></g><g
       transform="translate(848.9824,1281.2173)"
       id="g116"><path
         id="path118"
         style="fill:none;stroke:#231f20;stroke-width:5;stroke-linecap:butt;stroke-linejoin:miter;stroke-miterlimit:10;stroke-dasharray:none;stroke-opacity:1"
         d="M 0,0 136.705,17.694" /></g><g
       transform="translate(866.8291,1310.8716)"
       id="g120"><path
         id="path122"
         style="fill:none;stroke:#231f20;stroke-width:5;stroke-linecap:butt;stroke-linejoin:miter;stroke-miterlimit:10;stroke-dasharray:none;stroke-opacity:1"
         d="M 0,0 129.508,14.773" /></g><g
       transform="translate(878.0996,1329.6001)"
       id="g124"><path
         id="path126"
         style="fill:none;stroke:#231f20;stroke-width:5;stroke-linecap:butt;stroke-linejoin:miter;stroke-miterlimit:10;stroke-dasharray:none;stroke-opacity:1"
         d="M 0,0 125.401,14.027" /></g><g
       transform="translate(893.7046,1354.5854)"
       id="g128"><path
         id="path130"
         style="fill:none;stroke:#231f20;stroke-width:5;stroke-linecap:butt;stroke-linejoin:miter;stroke-miterlimit:10;stroke-dasharray:none;stroke-opacity:1"
         d="M 0,0 118.579,11.089" /></g><g
       transform="translate(905.3926,1374.9517)"
       id="g132"><path
         id="path134"
         style="fill:none;stroke:#231f20;stroke-width:5;stroke-linecap:butt;stroke-linejoin:miter;stroke-miterlimit:10;stroke-dasharray:none;stroke-opacity:1"
         d="M 0,0 113.144,6.418" /></g><g
       transform="translate(898.2715,1363.1187)"
       id="g136"><path
         id="path138"
         style="fill:#231f20;fill-opacity:1;fill-rule:nonzero;stroke:none"
         d="m 0,0 49.225,6.967 -6.696,-19.5 -52.304,-4.5 z" /></g><g
       transform="translate(868.7715,1315.9048)"
       id="g140"><path
         id="path142"
         style="fill:#231f20;fill-opacity:1;fill-rule:nonzero;stroke:none"
         d="m 0,0 49.225,6.967 -6.696,-19.5 -52.304,-4.5 z" /></g><g
       transform="translate(839.2715,1267.1001)"
       id="g144"><path
         id="path146"
         style="fill:#231f20;fill-opacity:1;fill-rule:nonzero;stroke:none"
         d="m 0,0 49.225,6.967 -6.696,-19.5 -52.304,-4.5 z" /></g><g
       transform="translate(809.7715,1215.4121)"
       id="g148"><path
         id="path150"
         style="fill:#231f20;fill-opacity:1;fill-rule:nonzero;stroke:none"
         d="m 0,0 49.225,6.967 -6.696,-19.5 -52.304,-4.5 z" /></g><g
       transform="translate(775.2715,1159.4121)"
       id="g152"><path
         id="path154"
         style="fill:#231f20;fill-opacity:1;fill-rule:nonzero;stroke:none"
         d="m 0,0 49.225,6.967 -6.696,-19.5 -52.304,-4.5 z" /></g><g
       transform="translate(738.8965,1095.1328)"
       id="g156"><path
         id="path158"
         style="fill:#231f20;fill-opacity:1;fill-rule:nonzero;stroke:none"
         d="m 0,0 52.21,1.768 -11.059,-25.832 -54.857,2.125 z" /></g><g
       transform="translate(708.8242,1043.8496)"
       id="g160"><path
         id="path162"
         style="fill:#231f20;fill-opacity:1;fill-rule:nonzero;stroke:none"
         d="M 0,0 60.582,-4.744 42.605,-36.713 -20.243,-26.566 Z" /></g></g></svg>