<?xml version="1.0" encoding="UTF-8" standalone="no"?>
<svg
   xmlns:dc="http://purl.org/dc/elements/1.1/"
   xmlns:cc="http://creativecommons.org/ns#"
   xmlns:rdf="http://www.w3.org/1999/02/22-rdf-syntax-ns#"
   xmlns:svg="http://www.w3.org/2000/svg"
   xmlns="http://www.w3.org/2000/svg"
   viewBox="0 0 2592 3264"
   height="3264"
   width="2592"
   xml:space="preserve"
   id="svg2"
   version="1.1"><metadata
     id="metadata8"><rdf:RDF><cc:Work
         rdf:about=""><dc:format>image/svg+xml</dc:format><dc:type
           rdf:resource="http://purl.org/dc/dcmitype/StillImage" /></cc:Work></rdf:RDF></metadata><defs
     id="defs6"><clipPath
       id="clipPath18"
       clipPathUnits="userSpaceOnUse"><path
         id="path16"
         d="M 0,2448 H 1944 V 0 H 0 Z" /></clipPath></defs><g
     transform="matrix(1.3333333,0,0,-1.3333333,0,3264)"
     id="g10"><g
       id="g12"><g
         clip-path="url(#clipPath18)"
         id="g14"><g
           transform="translate(1263.0762,1274.0552)"
           id="g20"><path
             id="path22"
             style="fill:#939598;fill-opacity:1;fill-rule:nonzero;stroke:none"
             d="m 0,0 -1.891,-1.51 -159.259,-127.19 -2.289,2.651 c -3.741,-5.731 -9.821,-10.291 -17.362,-12.311 l -2.17,-0.5 -185.979,-42.42 c -0.06,-5.42 -4.44,-10.349 -10.59,-11.5 l -58.34,-10.959 c -6.91,-1.291 -13.45,2.658 -14.61,8.828 l -9.75,51.971 c -1.16,6.17 3.5,12.231 10.41,13.52 l 58.34,10.951 c 6.91,1.299 13.45,-2.651 14.6,-8.821 l 3.46,-18.4 179.7,55.09 1.91,0.59 c 7.461,2.01 14.929,1.16 21.009,-1.84 l 138.51,128.29 1.561,1.451 C -20.961,48.07 -4.08,47.83 4.959,37.37 14,26.91 11.779,10.17 0,0" /></g></g></g></g></svg>