<?xml version="1.0" encoding="UTF-8" standalone="no"?>
<svg
   xmlns:dc="http://purl.org/dc/elements/1.1/"
   xmlns:cc="http://creativecommons.org/ns#"
   xmlns:rdf="http://www.w3.org/1999/02/22-rdf-syntax-ns#"
   xmlns:svg="http://www.w3.org/2000/svg"
   xmlns="http://www.w3.org/2000/svg"
   viewBox="0 0 2592 3264"
   height="3264"
   width="2592"
   xml:space="preserve"
   id="svg2"
   version="1.1"><metadata
     id="metadata8"><rdf:RDF><cc:Work
         rdf:about=""><dc:format>image/svg+xml</dc:format><dc:type
           rdf:resource="http://purl.org/dc/dcmitype/StillImage" /></cc:Work></rdf:RDF></metadata><defs
     id="defs6"><clipPath
       id="clipPath18"
       clipPathUnits="userSpaceOnUse"><path
         id="path16"
         d="M 0,2448 H 1944 V 0 H 0 Z" /></clipPath></defs><g
     transform="matrix(1.3333333,0,0,-1.3333333,0,3264)"
     id="g10"><g
       id="g12"><g
         clip-path="url(#clipPath18)"
         id="g14"><g
           transform="translate(1205.1807,1317.9351)"
           id="g20"><path
             id="path22"
             style="fill:#808285;fill-opacity:1;fill-rule:nonzero;stroke:none"
             d="m 0,0 -15.438,-44.286 -8.429,-2.611 -1.169,3.298 c -2.725,-1.951 -5.882,-3.414 -9.297,-4.31 -3.559,-0.941 -7.404,-1.252 -11.361,-0.815 l -2.203,0.334 -188.649,28.39 c -2.036,-5.021 -7.905,-8.005 -14.031,-6.833 l -58.327,11.099 c -6.893,1.312 -11.544,7.381 -10.368,13.547 l 9.888,51.94 c 1.176,6.167 7.725,10.1 14.627,8.785 l 58.318,-11.095 c 6.901,-1.315 11.543,-7.381 10.368,-13.548 l -3.5,-18.393 187.418,-14.299 1.994,-0.145 c 7.685,-0.857 14.345,-4.387 18.912,-9.389 z" /></g><g
           transform="translate(1184.5547,1055.3594)"
           id="g24"><path
             id="path26"
             style="fill:#6d6f71;fill-opacity:1;fill-rule:nonzero;stroke:none"
             d="m 0,0 -2.266,-0.073 -186.285,-5.598 32.473,-123.622 c 11.724,-1.392 20.721,-4.581 20.446,-7.347 l -2.45,-24.677 c -0.289,-2.919 -10.782,-4.268 -23.448,-3.011 l -106.556,10.582 c -12.665,1.259 -22.688,4.644 -22.398,7.564 l 2.451,24.677 c 0.29,2.92 10.783,4.269 23.448,3.01 l 69.689,-6.921 -46.588,123.934 -0.514,1.341 c -3.373,10.456 5.498,19.085 19.811,19.274 3.692,0.047 7.389,-0.469 10.894,-1.453 l 205.822,16.386 2.032,0.163 C 12.36,35.116 25.937,28.171 26.886,18.717 27.844,9.267 15.801,0.881 0,0" /></g></g></g></g></svg>