<?xml version="1.0" encoding="UTF-8" standalone="no"?>
<svg
   xmlns:dc="http://purl.org/dc/elements/1.1/"
   xmlns:cc="http://creativecommons.org/ns#"
   xmlns:rdf="http://www.w3.org/1999/02/22-rdf-syntax-ns#"
   xmlns:svg="http://www.w3.org/2000/svg"
   xmlns="http://www.w3.org/2000/svg"
   viewBox="0 0 2592 3264"
   height="3264"
   width="2592"
   xml:space="preserve"
   id="svg2"
   version="1.1"><metadata
     id="metadata8"><rdf:RDF><cc:Work
         rdf:about=""><dc:format>image/svg+xml</dc:format><dc:type
           rdf:resource="http://purl.org/dc/dcmitype/StillImage" /></cc:Work></rdf:RDF></metadata><defs
     id="defs6"><clipPath
       id="clipPath22"
       clipPathUnits="userSpaceOnUse"><path
         id="path20"
         d="M 0,2448 H 1944 V 0 H 0 Z" /></clipPath></defs><g
     transform="matrix(1.3333333,0,0,-1.3333333,0,3264)"
     id="g10"><g
       transform="translate(1328.0781,1020.2559)"
       id="g12"><path
         id="path14"
         style="fill:#808285;fill-opacity:1;fill-rule:nonzero;stroke:none"
         d="M 0,0 0.008,82.012 -218.229,84.07 V 2.059 Z" /></g><g
       id="g16"><g
         clip-path="url(#clipPath22)"
         id="g18"><g
           transform="translate(1109.8496,1023.3437)"
           id="g24"><path
             id="path26"
             style="fill:#808285;fill-opacity:1;fill-rule:nonzero;stroke:none"
             d="m 0,0 c 0.045,4.744 48.934,8.129 109.195,7.561 60.26,-0.569 109.076,-4.875 109.034,-9.62 -0.047,-4.744 -48.934,-8.129 -109.196,-7.56 C 48.771,-9.051 -0.045,-4.744 0,0" /></g><g
           transform="translate(1109.8496,1105.3555)"
           id="g28"><path
             id="path30"
             style="fill:#939598;fill-opacity:1;fill-rule:nonzero;stroke:none"
             d="M 0,0 C 0.062,6.793 48.969,11.838 109.234,11.27 169.498,10.701 218.301,4.734 218.236,-2.059 218.172,-8.852 169.266,-13.896 109.002,-13.328 48.736,-12.76 -0.064,-6.793 0,0" /></g><g
           transform="translate(1310.6543,1160.7637)"
           id="g32"><path
             id="path34"
             style="fill:#414142;fill-opacity:1;fill-rule:nonzero;stroke:none"
             d="m 0,0 c 0,-4.729 -4.494,-8.561 -10.041,-8.561 h -155.982 c -5.545,0 -10.041,3.832 -10.041,8.561 0,4.729 4.496,8.563 10.041,8.563 H -10.041 C -4.494,8.563 0,4.729 0,0" /></g><g
           transform="translate(1120.1602,1360.25)"
           id="g36"><path
             id="path38"
             style="fill:#ed1c24;fill-opacity:1;fill-rule:nonzero;stroke:none"
             d="m 0,0 23.59,-198.98 c -18.72,3.56 -30.27,8.43 -30.27,13.8 L -49.26,18.67 C -46.17,11.28 -27.78,4.69 0,0" /></g><g
           transform="translate(1372.5098,1381.1499)"
           id="g40"><path
             id="path42"
             style="fill:#ef475c;fill-opacity:1;fill-rule:nonzero;stroke:none"
             d="m 0,0 -0.58,-2.48 c -6.71,-14.4 -71.51,-25.7 -150.46,-25.7 -79.399,0 -144.489,11.43 -150.569,25.95 L -302.08,0 c 0,15.57 67.62,28.19 151.04,28.19 C -67.62,28.19 0,15.57 0,0" /></g><g
           transform="translate(1070.4297,1381.1499)"
           id="g44"><path
             id="path46"
             style="fill:#939598;fill-opacity:1;fill-rule:nonzero;stroke:none"
             d="M 0,0 0.471,-2.23 C 0.16,-1.49 0,-0.75 0,0" /></g><g
           transform="translate(1372.5098,1381.1499)"
           id="g48"><path
             id="path50"
             style="fill:#939598;fill-opacity:1;fill-rule:nonzero;stroke:none"
             d="M 0,0 C 0,-0.83 -0.189,-1.66 -0.58,-2.48 Z" /></g><g
           transform="translate(1188.1348,1453.4341)"
           id="g52"><path
             id="path54"
             style="fill:#6d6f71;fill-opacity:1;fill-rule:nonzero;stroke:none"
             d="M 0,0 12.721,-66 H 61.666 L 40.295,0 Z" /></g><g
           transform="translate(1311.3105,1496.2739)"
           id="g56"><path
             id="path58"
             style="fill:#939598;fill-opacity:1;fill-rule:nonzero;stroke:none"
             d="m 0,0 v -33.59 c 0,-13.26 -47.689,-24.01 -106.51,-24.01 -58.83,0 -106.51,10.75 -106.51,24.01 V 0 c 0,-13.26 47.69,-24.01 106.51,-24.01 C -47.689,-24.01 0,-13.26 0,0" /></g><g
           transform="translate(1311.3105,1496.2739)"
           id="g60"><path
             id="path62"
             style="fill:#6d6f71;fill-opacity:1;fill-rule:nonzero;stroke:none"
             d="m 0,0 c 0,-13.26 -47.689,-24.01 -106.51,-24.01 -58.82,0 -106.51,10.75 -106.51,24.01 0,13.25 47.69,24 106.51,24 C -47.689,24 0,13.25 0,0" /></g><g
           transform="translate(1322.8066,1684.228)"
           id="g64"><path
             id="path66"
             style="fill:#939598;fill-opacity:1;fill-rule:nonzero;stroke:none"
             d="m 0,0 -11.77,-185.056 c -0.841,-13.233 -49.117,-20.934 -107.819,-17.201 -58.701,3.734 -105.612,17.489 -104.77,30.722 l 11.769,185.056 z" /></g><g
           transform="translate(1322.8066,1684.228)"
           id="g68"><path
             id="path70"
             style="fill:#939598;fill-opacity:1;fill-rule:nonzero;stroke:none"
             d="m 0,0 -11.77,-185.056 c 0.841,13.223 -46.07,26.979 -104.771,30.712 -58.702,3.734 -106.978,-3.968 -107.818,-17.191 l 11.769,185.056 z" /></g><g
           transform="translate(1322.8047,1684.2271)"
           id="g72"><path
             id="path74"
             style="fill:#6d6f71;fill-opacity:1;fill-rule:nonzero;stroke:none"
             d="m 0,0 c -0.842,-13.229 -49.113,-20.927 -107.818,-17.193 -58.706,3.733 -105.616,17.485 -104.774,30.714 0.842,13.229 49.114,20.927 107.821,17.193 C -46.066,26.981 0.842,13.229 0,0" /></g><g
           transform="translate(1133.7773,1607.5566)"
           id="g76"><path
             id="path78"
             style="fill:#fff200;fill-opacity:1;fill-rule:nonzero;stroke:none"
             d="m 0,0 c -1.156,-18.188 -8.352,-32.535 -16.068,-32.044 -7.717,0.49 -13.036,15.633 -11.879,33.822 1.157,18.189 8.351,32.535 16.068,32.044 C -4.162,33.332 1.157,18.189 0,0" /></g><g
           transform="translate(1178.1621,1604.7339)"
           id="g80"><path
             id="path82"
             style="fill:#fff200;fill-opacity:1;fill-rule:nonzero;stroke:none"
             d="m 0,0 c -1.156,-18.189 -8.351,-32.536 -16.068,-32.044 -7.717,0.49 -13.034,15.632 -11.877,33.821 1.157,18.189 8.349,32.536 16.066,32.045 C -4.162,33.332 1.157,18.189 0,0" /></g><g
           transform="translate(1346.8477,1645.3755)"
           id="g84"><path
             id="path86"
             style="fill:#bf1e2d;fill-opacity:1;fill-rule:nonzero;stroke:none"
             d="m 0,0 c -3.532,-0.008 -16.966,1.595 -35.409,4.269 -27.502,3.988 -66.162,10.348 -99.693,17.242 -32.614,6.714 -72.824,19.341 -104.676,31.657 -22.837,8.825 -41.387,17.495 -49.758,23.71 -20.036,14.871 -30.824,22.145 -26.644,30.757 4.79,9.868 37.014,7.903 55.667,2.933 3.884,-1.037 15.811,-3.894 32.568,-7.873 53.774,-12.751 157.3,-37.032 204.472,-49.651 C -14.76,50.711 -7.969,48.78 -3.767,47.392 30.308,36.125 50.75,29.369 49.851,15.898 48.95,2.426 8.805,0.027 0,0" /></g><g
           transform="translate(1323.5059,1686.3223)"
           id="g88"><path
             id="path90"
             style="fill:#ed1c24;fill-opacity:1;fill-rule:nonzero;stroke:none"
             d="m 0,0 c -2.051,-8.907 -5.238,-17.275 -9.377,-24.984 -27.501,3.988 -66.162,10.348 -99.692,17.243 -32.617,6.714 -72.824,19.341 -104.678,31.656 -0.184,8.139 0.633,16.417 2.534,24.681 2.037,8.858 5.192,17.173 9.301,24.847 21.859,40.849 70.515,63.506 119.617,52.209 C -32.271,114.143 1.957,71.123 2.56,23.792 2.655,15.94 1.833,7.962 0,0" /></g><g
           transform="translate(1135.2539,1540.2363)"
           id="g92"><path
             id="path94"
             style="fill:#414142;fill-opacity:1;fill-rule:nonzero;stroke:none"
             d="M 0,0 C -1.478,11.077 -6.026,24.613 -16.033,17.812 -26.037,11.009 -39.068,-12.21 -49.283,-1.541 -59.5,9.129 -63.706,20.844 -63.706,20.844 c 0,0 -1.34,-10.695 1.396,-19.552 2.739,-8.858 9.709,-18.654 18.341,-17.866 8.634,0.786 23.237,7.205 28.328,4.21 5.092,-2.996 10.885,-10.532 13.296,-3.761 C 0.066,-9.355 0.671,-5.023 0,0" /></g><g
           transform="translate(1136.332,1540.168)"
           id="g96"><path
             id="path98"
             style="fill:#414142;fill-opacity:1;fill-rule:nonzero;stroke:none"
             d="m 0,0 c 2.869,10.801 9.098,23.651 18.16,15.637 9.064,-8.015 19.047,-32.699 30.532,-23.409 11.485,9.29 17.141,20.376 17.141,20.376 0,0 -0.024,-10.777 -3.862,-19.217 C 58.132,-15.052 49.977,-23.886 41.515,-22.011 33.05,-20.137 19.378,-11.92 13.947,-14.246 8.52,-16.573 1.818,-23.315 0.284,-16.293 -1.25,-9.271 -1.302,-4.898 0,0" /></g><g
           transform="translate(1310.6543,1143.6426)"
           id="g100"><path
             id="path102"
             style="fill:#414142;fill-opacity:1;fill-rule:nonzero;stroke:none"
             d="m 0,0 c 0,-4.729 -4.494,-8.563 -10.041,-8.563 h -155.982 c -5.545,0 -10.041,3.834 -10.041,8.563 0,4.729 4.496,8.561 10.041,8.561 H -10.041 C -4.494,8.561 0,4.729 0,0" /></g><g
           transform="translate(1310.6543,1128.0098)"
           id="g104"><path
             id="path106"
             style="fill:#414142;fill-opacity:1;fill-rule:nonzero;stroke:none"
             d="m 0,0 c 0,-4.729 -4.494,-8.563 -10.041,-8.563 h -155.982 c -5.545,0 -10.041,3.834 -10.041,8.563 0,4.727 4.496,8.561 10.041,8.561 H -10.041 C -4.494,8.561 0,4.727 0,0" /></g><g
           transform="translate(1310.6543,1112.8867)"
           id="g108"><path
             id="path110"
             style="fill:#414142;fill-opacity:1;fill-rule:nonzero;stroke:none"
             d="m 0,0 c 0,-4.729 -4.494,-8.561 -10.041,-8.561 h -155.982 c -5.545,0 -10.041,3.832 -10.041,8.561 0,4.729 4.496,8.561 10.041,8.561 H -10.041 C -4.494,8.561 0,4.729 0,0" /></g><g
           transform="translate(1185.5898,1156.3896)"
           id="g112"><path
             id="path114"
             style="fill:#ffffff;fill-opacity:1;fill-rule:nonzero;stroke:none"
             d="m 0,0 c -3.41,0.221 -6.75,0.46 -9.99,0.74 -11.98,1 -22.76,2.42 -31.85,4.14 l -23.59,198.98 c 9.58,-1.62 20.281,-3.009 31.86,-4.12 8.54,-0.84 17.56,-1.52 26.961,-2.03 z" /></g><g
           transform="translate(1255.75,1353.7002)"
           id="g116"><path
             id="path118"
             style="fill:#ed1c24;fill-opacity:1;fill-rule:nonzero;stroke:none"
             d="m 0,0 -11.85,-197.76 c -7.99,-0.36 -16.34,-0.551 -24.93,-0.551 -0.73,0 -1.46,0 -2.18,0.011 -10.89,0.04 -21.37,0.38 -31.2,0.989 L -76.77,0.4 c 10.01,-0.55 20.45,-0.9 31.2,-1.06 3.73,-0.04 7.49,-0.07 11.29,-0.07 11.79,0 23.27,0.25 34.28,0.73" /></g><g
           transform="translate(1318.7197,1359.5801)"
           id="g120"><path
             id="path122"
             style="fill:#ffffff;fill-opacity:1;fill-rule:nonzero;stroke:none"
             d="m 0,0 -24.689,-198.34 c -5.641,-1.06 -11.941,-2.01 -18.781,-2.82 -9.519,-1.12 -20.08,-1.97 -31.349,-2.48 L -62.97,-5.88 c 10.95,0.47 21.441,1.17 31.33,2.07 C -20.22,-2.79 -9.6,-1.5 0,0" /></g><g
           transform="translate(1371.9297,1378.6699)"
           id="g124"><path
             id="path126"
             style="fill:#ed1c24;fill-opacity:1;fill-rule:nonzero;stroke:none"
             d="m 0,0 -41.699,-178.83 -0.011,-0.03 -5.769,-24.74 c 0,-5.379 -11.611,-10.27 -30.42,-13.83 l 24.689,198.34 c 12.721,2.01 23.65,4.39 32.271,7.06 C -9.42,-8.46 -2.029,-4.37 0,0" /></g><g
           transform="translate(1015.2285,1515.5347)"
           id="g128"><path
             id="path130"
             style="fill:#ed1c24;fill-opacity:1;fill-rule:nonzero;stroke:none"
             d="m 0,0 c 0.903,4.305 1.496,8.519 1.796,12.563 -6.215,1.897 -15.064,4.225 -22.943,5.621 -7.667,1.354 -17.764,1.055 -26.108,-0.227 -1.248,-3.656 -2.311,-7.51 -3.15,-11.503 -0.901,-4.281 -1.492,-8.466 -1.793,-12.49 -1.603,-21.417 4.975,-38.214 16.695,-39.714 11.937,-1.528 25.33,13.321 32.488,34.646 C -1.828,-7.566 -0.81,-3.848 0,0" /></g><g
           transform="translate(1013.7432,1509.4395)"
           id="g132"><path
             id="path134"
             style="fill:#bf1e2d;fill-opacity:1;fill-rule:nonzero;stroke:none"
             d="m 0,0 94.742,-13.144 v -6.632 l -106.503,6.632 V 0 Z" /></g><g
           transform="translate(1242.9102,999.9922)"
           id="g136"><path
             id="path138"
             style="fill:#a7a9ac;fill-opacity:1;fill-rule:nonzero;stroke:none"
             d="m 0,0 -2.66,-0.527 -222.471,-43.177 c -0.682,-3.498 -1.862,-6.953 -3.504,-10.234 l -31.518,47.612 c 2.604,0.776 5.255,1.176 7.878,1.198 0.17,0.052 0.336,0.09 0.511,0.134 L -10.12,60.65 -7.752,61.295 C 10.762,65.647 27.506,55.444 29.646,38.514 31.789,21.582 18.503,4.333 0,0" /></g><g
           transform="translate(1125.2871,733.293)"
           id="g140"><path
             id="path142"
             style="fill:#a7a9ac;fill-opacity:1;fill-rule:nonzero;stroke:none"
             d="m 0,0 v -45.04 c 0,-5.329 -12.189,-9.649 -27.229,-9.649 h -126.63 c -15.05,0 -27.24,4.32 -27.24,9.649 V 0 c 0,5.341 12.19,9.66 27.24,9.66 h 82.82 l -69.32,215.67 -0.75,2.33 c -0.3,1.07 -0.55,2.13 -0.75,3.191 h 63.42 L -24.909,9.62 C -10.959,9.21 0,5.061 0,0" /></g><g
           transform="translate(1049.2344,968.5752)"
           id="g144"><path
             id="path146"
             style="fill:#a7a9ac;fill-opacity:1;fill-rule:nonzero;stroke:none"
             d="m 0,0 c 0,-17.723 -16.225,-32.091 -36.239,-32.091 -20.014,0 -36.239,14.368 -36.239,32.091 0,17.724 16.225,32.091 36.239,32.091 C -16.225,32.091 0,17.724 0,0" /></g></g></g></g></svg>