<?xml version="1.0" encoding="UTF-8" standalone="no"?>
<svg
   xmlns:dc="http://purl.org/dc/elements/1.1/"
   xmlns:cc="http://creativecommons.org/ns#"
   xmlns:rdf="http://www.w3.org/1999/02/22-rdf-syntax-ns#"
   xmlns:svg="http://www.w3.org/2000/svg"
   xmlns="http://www.w3.org/2000/svg"
   viewBox="0 0 2592 3264"
   height="3264"
   width="2592"
   xml:space="preserve"
   id="svg2"
   version="1.1"><metadata
     id="metadata8"><rdf:RDF><cc:Work
         rdf:about=""><dc:format>image/svg+xml</dc:format><dc:type
           rdf:resource="http://purl.org/dc/dcmitype/StillImage" /></cc:Work></rdf:RDF></metadata><defs
     id="defs6"><clipPath
       id="clipPath194"
       clipPathUnits="userSpaceOnUse"><path
         id="path192"
         d="M 0,2448 H 1944 V 0 H 0 Z" /></clipPath></defs><g
     transform="matrix(1.3333333,0,0,-1.3333333,0,3264)"
     id="g10"><g
       transform="translate(1213.2285,1184.5039)"
       id="g12"><path
         id="path14"
         style="fill:#754c29;fill-opacity:1;fill-rule:nonzero;stroke:none"
         d="m 0,0 -40.498,-219.697 h -33 l 0,219.697 z" /></g><g
       transform="translate(1403.2422,839.3672)"
       id="g16"><path
         id="path18"
         style="fill:#754c29;fill-opacity:1;fill-rule:nonzero;stroke:none"
         d="m 0,0 -40.498,-219.697 h -33 l 0,219.697 z" /></g><g
       transform="translate(1649.2285,864.6699)"
       id="g20"><path
         id="path22"
         style="fill:#754c29;fill-opacity:1;fill-rule:nonzero;stroke:none"
         d="M 0,0 -40.498,-219.697 H -73.496 V 0 Z" /></g><g
       transform="translate(916.2715,1552.9487)"
       id="g24"><path
         id="path26"
         style="fill:#603912;fill-opacity:1;fill-rule:nonzero;stroke:none"
         d="M 0,0 38.614,-40.094 170.5,-63 210.5,-98 195.094,-518.083 -10.5,-922 l -333,421.917 z" /></g><g
       transform="translate(438.7715,1474.9487)"
       id="g28"><path
         id="path30"
         style="fill:#8b5d3b;fill-opacity:1;fill-rule:nonzero;stroke:none"
         d="m 0,0 116,-442 18,-364 h 16 L 132,-432 16,-10 460,298 v 18 z" /></g><g
       transform="translate(982.7715,1444.9487)"
       id="g32"><path
         id="path34"
         style="fill:#ffffff;fill-opacity:1;fill-rule:nonzero;stroke:none"
         d="m 0,0 112,10 -196,-492 -182,40 z" /></g><g
       transform="translate(438.7715,1474.9487)"
       id="g36"><path
         id="path38"
         style="fill:#754c29;fill-opacity:1;fill-rule:nonzero;stroke:none"
         d="M 0,0 -168,78 292,336.143 460,316 Z" /></g><g
       transform="translate(572.7715,668.9492)"
       id="g40"><path
         id="path42"
         style="fill:#603912;fill-opacity:1;fill-rule:nonzero;stroke:none"
         d="m 0,0 -18,364 -116,442 -168,78 60,-836 z" /></g><g
       transform="translate(878.7124,1759.0337)"
       id="g44"><path
         id="path46"
         style="fill:#754c29;fill-opacity:1;fill-rule:nonzero;stroke:none"
         d="m 0,0 86.059,-234.085 -394,-481.999 -116,421.999 z" /></g><g
       transform="translate(964.7715,1524.9487)"
       id="g48"><path
         id="path50"
         style="fill:#8b5d3b;fill-opacity:1;fill-rule:nonzero;stroke:none"
         d="m 0,0 130,-26 32,-44 h -18 l -22,35 -131.886,22.906 z" /></g><g
       transform="translate(570.7715,1042.9492)"
       id="g52"><path
         id="path54"
         style="fill:#754c29;fill-opacity:1;fill-rule:nonzero;stroke:none"
         d="m 0,0 318,-80 17,-66 v -266 l -317,38 z" /></g><g
       transform="translate(926.7715,924.9492)"
       id="g56"><path
         id="path58"
         style="fill:#8b5d3b;fill-opacity:1;fill-rule:nonzero;stroke:none"
         d="m 0,0 v -270 l -21,-24 v 266" /></g><g
       transform="translate(690.7715,1042.9492)"
       id="g60"><path
         id="path62"
         style="fill:#8b5d3b;fill-opacity:1;fill-rule:nonzero;stroke:none"
         d="M 0,0 -106,145 208,516 264.114,412 Z" /></g><g
       transform="translate(690.7715,1042.9492)"
       id="g64"><path
         id="path66"
         style="fill:#603912;fill-opacity:1;fill-rule:nonzero;stroke:none"
         d="m 0,0 h -22 l -103,150 19,-5 z" /></g><g
       transform="translate(898.7715,1558.9487)"
       id="g68"><path
         id="path70"
         style="fill:#603912;fill-opacity:1;fill-rule:nonzero;stroke:none"
         d="m 0,0 -17,-6 -316,-360 19,-5 z" /></g><g
       transform="translate(982.7715,1444.9487)"
       id="g72"><path
         id="path74"
         style="fill:none;stroke:#231f20;stroke-width:7;stroke-linecap:butt;stroke-linejoin:miter;stroke-miterlimit:10;stroke-dasharray:none;stroke-opacity:1"
         d="M 0,0 112,10" /></g><g
       transform="translate(898.7715,962.9492)"
       id="g76"><path
         id="path78"
         style="fill:none;stroke:#231f20;stroke-width:7;stroke-linecap:butt;stroke-linejoin:miter;stroke-miterlimit:10;stroke-dasharray:none;stroke-opacity:1"
         d="M 0,0 196,492" /></g><g
       transform="translate(570.7715,1042.9492)"
       id="g80"><path
         id="path82"
         style="fill:#8b5d3b;fill-opacity:1;fill-rule:nonzero;stroke:none"
         d="M 0,0 14,17.127 335,-62.43 356,-118 335,-146 318,-80 Z" /></g><g
       transform="translate(729.5562,1024.1934)"
       id="g84"><path
         id="path86"
         style="fill:none;stroke:#231f20;stroke-width:5;stroke-linecap:butt;stroke-linejoin:miter;stroke-miterlimit:10;stroke-dasharray:none;stroke-opacity:1"
         d="M 0,0 253.215,420.755" /></g><g
       transform="translate(745.9521,1051.4375)"
       id="g88"><path
         id="path90"
         style="fill:none;stroke:#231f20;stroke-width:5;stroke-linecap:butt;stroke-linejoin:miter;stroke-miterlimit:10;stroke-dasharray:none;stroke-opacity:1"
         d="M 0,0 177.217,-27.244" /></g><g
       transform="translate(785.9795,1117.9492)"
       id="g92"><path
         id="path94"
         style="fill:none;stroke:#231f20;stroke-width:5;stroke-linecap:butt;stroke-linejoin:miter;stroke-miterlimit:10;stroke-dasharray:none;stroke-opacity:1"
         d="M 0,0 168.906,-14.143" /></g><g
       transform="translate(769.8286,1091.1113)"
       id="g96"><path
         id="path98"
         style="fill:none;stroke:#231f20;stroke-width:5;stroke-linecap:butt;stroke-linejoin:miter;stroke-miterlimit:10;stroke-dasharray:none;stroke-opacity:1"
         d="M 0,0 171.69,-20.859" /></g><g
       transform="translate(802.1069,1144.7461)"
       id="g100"><path
         id="path102"
         style="fill:none;stroke:#231f20;stroke-width:5;stroke-linecap:butt;stroke-linejoin:miter;stroke-miterlimit:10;stroke-dasharray:none;stroke-opacity:1"
         d="M 0,0 162.665,-6.797" /></g><g
       transform="translate(822.7715,1178.9492)"
       id="g104"><path
         id="path106"
         style="fill:none;stroke:#231f20;stroke-width:5;stroke-linecap:butt;stroke-linejoin:miter;stroke-miterlimit:10;stroke-dasharray:none;stroke-opacity:1"
         d="M 0,0 160,-5.143" /></g><g
       transform="translate(840.7441,1208.9492)"
       id="g108"><path
         id="path110"
         style="fill:none;stroke:#231f20;stroke-width:5;stroke-linecap:butt;stroke-linejoin:miter;stroke-miterlimit:10;stroke-dasharray:none;stroke-opacity:1"
         d="M 0,0 H 156.027" /></g><g
       transform="translate(858.7915,1238.937)"
       id="g112"><path
         id="path114"
         style="fill:none;stroke:#231f20;stroke-width:5;stroke-linecap:butt;stroke-linejoin:miter;stroke-miterlimit:10;stroke-dasharray:none;stroke-opacity:1"
         d="M 0,0 150.558,1.586" /></g><g
       transform="translate(874.4424,1264.9434)"
       id="g116"><path
         id="path118"
         style="fill:none;stroke:#231f20;stroke-width:5;stroke-linecap:butt;stroke-linejoin:miter;stroke-miterlimit:10;stroke-dasharray:none;stroke-opacity:1"
         d="M 0,0 146.865,5.597" /></g><g
       transform="translate(888.6147,1288.9487)"
       id="g120"><path
         id="path122"
         style="fill:none;stroke:#231f20;stroke-width:5;stroke-linecap:butt;stroke-linejoin:miter;stroke-miterlimit:10;stroke-dasharray:none;stroke-opacity:1"
         d="M 0,0 144.239,10.571" /></g><g
       transform="translate(904.7715,1315.3398)"
       id="g124"><path
         id="path126"
         style="fill:none;stroke:#231f20;stroke-width:5;stroke-linecap:butt;stroke-linejoin:miter;stroke-miterlimit:10;stroke-dasharray:none;stroke-opacity:1"
         d="M 0,0 140.793,16.09" /></g><g
       transform="translate(918.7578,1338.5806)"
       id="g128"><path
         id="path130"
         style="fill:none;stroke:#231f20;stroke-width:5;stroke-linecap:butt;stroke-linejoin:miter;stroke-miterlimit:10;stroke-dasharray:none;stroke-opacity:1"
         d="M 0,0 136.705,17.694" /></g><g
       transform="translate(936.6045,1368.2344)"
       id="g132"><path
         id="path134"
         style="fill:none;stroke:#231f20;stroke-width:5;stroke-linecap:butt;stroke-linejoin:miter;stroke-miterlimit:10;stroke-dasharray:none;stroke-opacity:1"
         d="M 0,0 129.508,14.774" /></g><g
       transform="translate(947.875,1386.9629)"
       id="g136"><path
         id="path138"
         style="fill:none;stroke:#231f20;stroke-width:5;stroke-linecap:butt;stroke-linejoin:miter;stroke-miterlimit:10;stroke-dasharray:none;stroke-opacity:1"
         d="M 0,0 125.401,14.028" /></g><g
       transform="translate(963.48,1411.9487)"
       id="g140"><path
         id="path142"
         style="fill:none;stroke:#231f20;stroke-width:5;stroke-linecap:butt;stroke-linejoin:miter;stroke-miterlimit:10;stroke-dasharray:none;stroke-opacity:1"
         d="M 0,0 118.579,11.089" /></g><g
       transform="translate(975.168,1432.3145)"
       id="g144"><path
         id="path146"
         style="fill:none;stroke:#231f20;stroke-width:5;stroke-linecap:butt;stroke-linejoin:miter;stroke-miterlimit:10;stroke-dasharray:none;stroke-opacity:1"
         d="M 0,0 113.144,6.419" /></g><g
       transform="translate(968.0469,1420.4819)"
       id="g148"><path
         id="path150"
         style="fill:#231f20;fill-opacity:1;fill-rule:nonzero;stroke:none"
         d="m 0,0 49.225,6.967 -6.696,-19.5 -52.304,-4.5 z" /></g><g
       transform="translate(938.5469,1373.2676)"
       id="g152"><path
         id="path154"
         style="fill:#231f20;fill-opacity:1;fill-rule:nonzero;stroke:none"
         d="m 0,0 49.225,6.967 -6.696,-19.5 -52.304,-4.5 z" /></g><g
       transform="translate(909.0469,1324.4629)"
       id="g156"><path
         id="path158"
         style="fill:#231f20;fill-opacity:1;fill-rule:nonzero;stroke:none"
         d="m 0,0 49.225,6.967 -6.696,-19.5 -52.304,-4.5 z" /></g><g
       transform="translate(879.5469,1272.7749)"
       id="g160"><path
         id="path162"
         style="fill:#231f20;fill-opacity:1;fill-rule:nonzero;stroke:none"
         d="m 0,0 49.225,6.967 -6.696,-19.5 -52.304,-4.5 z" /></g><g
       transform="translate(845.0469,1216.7754)"
       id="g164"><path
         id="path166"
         style="fill:#231f20;fill-opacity:1;fill-rule:nonzero;stroke:none"
         d="m 0,0 49.225,6.966 -6.696,-19.499 -52.304,-4.5 z" /></g><g
       transform="translate(808.6719,1152.4961)"
       id="g168"><path
         id="path170"
         style="fill:#231f20;fill-opacity:1;fill-rule:nonzero;stroke:none"
         d="m 0,0 52.21,1.768 -11.059,-25.832 -54.857,2.125 z" /></g><g
       transform="translate(778.5996,1101.2129)"
       id="g172"><path
         id="path174"
         style="fill:#231f20;fill-opacity:1;fill-rule:nonzero;stroke:none"
         d="M 0,0 60.582,-4.744 42.605,-36.713 -20.243,-26.566 Z" /></g><g
       transform="translate(1673.2285,874.75)"
       id="g176"><path
         id="path178"
         style="fill:#8b5d3b;fill-opacity:1;fill-rule:nonzero;stroke:none"
         d="m 0,0 -362,-39.059 -196,380.077 256,31.264 z" /></g><g
       transform="translate(1311.2285,835.6914)"
       id="g180"><path
         id="path182"
         style="fill:#603912;fill-opacity:1;fill-rule:nonzero;stroke:none"
         d="M 0,0 V -36.102 L 362,0 v 39.059 z" /></g><g
       transform="translate(1115.2285,1215.7676)"
       id="g184"><path
         id="path186"
         style="fill:#754c29;fill-opacity:1;fill-rule:nonzero;stroke:none"
         d="m 0,0 v -38.76 l 196,-377.418 v 36.102 z" /></g><g
       id="g188"><g
         clip-path="url(#clipPath194)"
         id="g190"><g
           transform="translate(1280.2578,1110.0918)"
           id="g196"><path
             id="path198"
             style="fill:#6d6f71;fill-opacity:1;fill-rule:nonzero;stroke:none"
             d="m 0,0 -2.484,-0.352 -204.1,-28.207 49.176,-140.935 c 13.037,-0.266 23.271,-2.953 23.271,-6.223 v -29.174 c 0,-3.451 -11.383,-6.248 -25.437,-6.248 h -118.252 c -14.055,0 -25.438,2.797 -25.438,6.248 v 29.174 c 0,3.451 11.383,6.248 25.438,6.248 h 77.34 l -64.724,139.66 -0.71,1.51 c -4.848,11.85 3.959,22.981 19.667,24.865 4.052,0.487 8.171,0.311 12.13,-0.433 L -9.73,39.242 -7.518,39.67 C 9.75,42.545 25.428,35.99 27.5,25.033 29.584,14.084 17.266,2.867 0,0" /></g><g
           transform="translate(1397.8535,1077.6191)"
           id="g200"><path
             id="path202"
             style="fill:#808285;fill-opacity:1;fill-rule:nonzero;stroke:none"
             d="M 0,0 0.008,82.012 -218.229,84.07 V 2.059 Z" /></g><g
           transform="translate(1179.625,1080.707)"
           id="g204"><path
             id="path206"
             style="fill:#808285;fill-opacity:1;fill-rule:nonzero;stroke:none"
             d="m 0,0 c 0.045,4.744 48.934,8.129 109.195,7.561 60.26,-0.569 109.076,-4.875 109.034,-9.62 -0.047,-4.744 -48.934,-8.129 -109.196,-7.56 C 48.771,-9.051 -0.045,-4.744 0,0" /></g><g
           transform="translate(1179.625,1162.7188)"
           id="g208"><path
             id="path210"
             style="fill:#939598;fill-opacity:1;fill-rule:nonzero;stroke:none"
             d="M 0,0 C 0.062,6.793 48.969,11.838 109.234,11.27 169.498,10.701 218.301,4.734 218.236,-2.059 218.172,-8.852 169.266,-13.896 109.002,-13.328 48.736,-12.76 -0.064,-6.793 0,0" /></g><g
           transform="translate(1380.4297,1218.1279)"
           id="g212"><path
             id="path214"
             style="fill:#414142;fill-opacity:1;fill-rule:nonzero;stroke:none"
             d="m 0,0 c 0,-4.729 -4.494,-8.562 -10.041,-8.562 h -155.982 c -5.545,0 -10.041,3.833 -10.041,8.562 0,4.729 4.496,8.561 10.041,8.561 H -10.041 C -4.494,8.561 0,4.729 0,0" /></g><g
           transform="translate(1394.2285,1232.4336)"
           id="g216"><path
             id="path218"
             style="fill:#808285;fill-opacity:1;fill-rule:nonzero;stroke:none"
             d="m 0,0 c 0,-10.87 -47.229,-19.682 -105.486,-19.682 -58.256,0 -105.485,8.812 -105.485,19.682 0,10.87 47.229,19.682 105.485,19.682 C -47.229,19.682 0,10.87 0,0" /></g><g
           transform="translate(1140.2051,1438.5186)"
           id="g220"><path
             id="path222"
             style="fill:#808285;fill-opacity:1;fill-rule:nonzero;stroke:none"
             d="m 0,0 43.053,-206.085 h 210.97 L 302.08,0 Z" /></g><g
           transform="translate(1442.2852,1438.5186)"
           id="g224"><path
             id="path226"
             style="fill:#939598;fill-opacity:1;fill-rule:nonzero;stroke:none"
             d="m 0,0 c 0,-15.564 -67.623,-28.182 -151.041,-28.182 -83.416,0 -151.039,12.618 -151.039,28.182 0,15.564 67.623,28.182 151.039,28.182 C -67.623,28.182 0,15.564 0,0" /></g><g
           transform="translate(1257.9102,1510.7979)"
           id="g228"><path
             id="path230"
             style="fill:#6d6f71;fill-opacity:1;fill-rule:nonzero;stroke:none"
             d="M 0,0 12.721,-66 H 61.666 L 40.295,0 Z" /></g><g
           transform="translate(1381.0859,1553.6377)"
           id="g232"><path
             id="path234"
             style="fill:#939598;fill-opacity:1;fill-rule:nonzero;stroke:none"
             d="m 0,0 v -33.59 c 0,-13.26 -47.689,-24.01 -106.51,-24.01 -58.83,0 -106.51,10.75 -106.51,24.01 V 0 c 0,-13.26 47.69,-24.01 106.51,-24.01 C -47.689,-24.01 0,-13.26 0,0" /></g><g
           transform="translate(1381.0859,1553.6377)"
           id="g236"><path
             id="path238"
             style="fill:#6d6f71;fill-opacity:1;fill-rule:nonzero;stroke:none"
             d="m 0,0 c 0,-13.26 -47.689,-24.01 -106.51,-24.01 -58.82,0 -106.51,10.75 -106.51,24.01 0,13.25 47.69,24 106.51,24 C -47.689,24 0,13.25 0,0" /></g><g
           transform="translate(1381.0879,1752.7036)"
           id="g240"><path
             id="path242"
             style="fill:#939598;fill-opacity:1;fill-rule:nonzero;stroke:none"
             d="m 0,0 v -185.43 c 0,-13.26 -47.689,-24.01 -106.51,-24.01 -58.82,0 -106.51,10.75 -106.51,24.01 V 0 Z" /></g><g
           transform="translate(1381.0879,1752.7036)"
           id="g244"><path
             id="path246"
             style="fill:#939598;fill-opacity:1;fill-rule:nonzero;stroke:none"
             d="m 0,0 v -185.43 c 0,13.25 -47.689,24 -106.51,24 -58.82,0 -106.51,-10.75 -106.51,-24 V 0 Z" /></g><g
           transform="translate(1381.0859,1752.7026)"
           id="g248"><path
             id="path250"
             style="fill:#6d6f71;fill-opacity:1;fill-rule:nonzero;stroke:none"
             d="m 0,0 c 0,-13.256 -47.686,-24.002 -106.51,-24.002 -58.824,0 -106.511,10.746 -106.511,24.002 0,13.256 47.687,24.002 106.511,24.002 C -47.686,24.002 0,13.256 0,0" /></g><g
           transform="translate(1197.3066,1664.189)"
           id="g252"><path
             id="path254"
             style="fill:#fff200;fill-opacity:1;fill-rule:nonzero;stroke:none"
             d="m 0,0 c 0,-18.226 -6.27,-33 -14.002,-33 -7.732,0 -14.002,14.774 -14.002,33 0,18.226 6.27,33 14.002,33 C -6.27,33 0,18.226 0,0" /></g><g
           transform="translate(1241.7813,1664.189)"
           id="g256"><path
             id="path258"
             style="fill:#fff200;fill-opacity:1;fill-rule:nonzero;stroke:none"
             d="m 0,0 c 0,-18.226 -6.27,-33 -14.002,-33 -7.732,0 -14,14.774 -14,33 0,18.226 6.268,33 14,33 C -6.27,33 0,18.226 0,0" /></g><g
           transform="translate(1407.5469,1715.4556)"
           id="g260"><path
             id="path262"
             style="fill:#231f20;fill-opacity:1;fill-rule:nonzero;stroke:none"
             d="m 0,0 c -3.525,-0.232 -17.033,0.515 -35.609,2.013 -27.7,2.234 -66.686,6.127 -100.586,10.879 -32.975,4.63 -73.905,14.68 -106.475,24.949 -23.351,7.358 -42.414,14.833 -51.162,20.504 -20.939,13.57 -32.168,20.145 -28.542,29.005 4.153,10.151 36.437,10.235 55.368,6.46 3.942,-0.789 16.026,-2.883 33.002,-5.79 54.475,-9.312 159.334,-26.974 207.211,-36.572 8.844,-1.776 15.744,-3.273 20.025,-4.391 C 27.953,37.976 48.783,32.531 48.74,19.03 48.697,5.528 8.785,0.586 0,0" /></g><g
           transform="translate(1381.6523,1754.8384)"
           id="g264"><path
             id="path266"
             style="fill:#414142;fill-opacity:1;fill-rule:nonzero;stroke:none"
             d="m 0,0 c -1.48,-9.02 -4.131,-17.573 -7.771,-25.529 -27.7,2.235 -66.686,6.128 -100.586,10.88 -32.977,4.63 -73.905,14.68 -106.477,24.948 -0.699,8.112 -0.41,16.425 0.963,24.793 1.471,8.969 4.092,17.467 7.705,25.387 19.223,42.154 66.342,67.853 116.062,59.696 C -39.451,111.864 -2.561,71.103 1.045,23.906 1.639,16.077 1.324,8.063 0,0" /></g><g
           transform="translate(1203.0527,1597.0986)"
           id="g268"><path
             id="path270"
             style="fill:#414142;fill-opacity:1;fill-rule:nonzero;stroke:none"
             d="m 0,0 c -2.178,10.961 -7.576,24.18 -17.131,16.757 -9.553,-7.424 -21.084,-31.424 -31.955,-21.424 -10.873,10 -15.814,21.424 -15.814,21.424 0,0 -0.659,-10.757 2.634,-19.424 3.295,-8.666 10.873,-18 19.438,-16.666 8.566,1.333 22.732,8.666 28.004,6 5.271,-2.667 11.531,-9.82 13.508,-2.91 C 0.66,-9.333 0.988,-4.972 0,0" /></g><g
           transform="translate(1204.1328,1597.0986)"
           id="g272"><path
             id="path274"
             style="fill:#414142;fill-opacity:1;fill-rule:nonzero;stroke:none"
             d="m 0,0 c 2.178,10.961 7.578,24.18 17.131,16.757 9.555,-7.424 21.084,-31.424 31.957,-21.424 10.871,10 15.812,21.424 15.812,21.424 0,0 0.661,-10.757 -2.634,-19.424 -3.295,-8.666 -10.873,-18 -19.438,-16.666 -8.566,1.333 -22.732,8.666 -28.004,6 C 9.555,-16 3.295,-23.153 1.318,-16.243 -0.658,-9.333 -0.988,-4.972 0,0" /></g><g
           transform="translate(1332.8516,1331.4189)"
           id="g276"><path
             id="path278"
             style="fill:#939598;fill-opacity:1;fill-rule:nonzero;stroke:none"
             d="M 0,0 C -0.621,-0.53 -1.25,-1.04 -1.891,-1.51 Z" /></g><g
           transform="translate(1380.4297,1201.0059)"
           id="g280"><path
             id="path282"
             style="fill:#414142;fill-opacity:1;fill-rule:nonzero;stroke:none"
             d="m 0,0 c 0,-4.729 -4.494,-8.562 -10.041,-8.562 h -155.982 c -5.545,0 -10.041,3.833 -10.041,8.562 0,4.729 4.496,8.561 10.041,8.561 H -10.041 C -4.494,8.561 0,4.729 0,0" /></g><g
           transform="translate(1380.4297,1185.373)"
           id="g284"><path
             id="path286"
             style="fill:#414142;fill-opacity:1;fill-rule:nonzero;stroke:none"
             d="m 0,0 c 0,-4.729 -4.494,-8.563 -10.041,-8.563 h -155.982 c -5.545,0 -10.041,3.834 -10.041,8.563 0,4.728 4.496,8.561 10.041,8.561 H -10.041 C -4.494,8.561 0,4.728 0,0" /></g><g
           transform="translate(1380.4297,1170.25)"
           id="g288"><path
             id="path290"
             style="fill:#414142;fill-opacity:1;fill-rule:nonzero;stroke:none"
             d="m 0,0 c 0,-4.729 -4.494,-8.561 -10.041,-8.561 h -155.982 c -5.545,0 -10.041,3.832 -10.041,8.561 0,4.729 4.496,8.561 10.041,8.561 H -10.041 C -4.494,8.561 0,4.729 0,0" /></g><g
           transform="translate(1318.6953,1051.4297)"
           id="g292"><path
             id="path294"
             style="fill:#939598;fill-opacity:1;fill-rule:nonzero;stroke:none"
             d="m 0,0 -2.66,-0.539 -218.561,-43.561 52.66,-217.64 c 13.959,-0.41 24.92,-4.561 24.92,-9.61 v -45.05 c 0,-5.33 -12.189,-9.651 -27.24,-9.651 H -297.51 c -15.051,0 -27.24,4.321 -27.24,9.651 v 45.05 c 0,5.33 12.189,9.651 27.24,9.651 h 82.82 l -69.31,215.67 -0.76,2.33 c -5.191,18.299 4.239,35.488 21.06,38.398 4.34,0.75 8.75,0.481 12.989,-0.67 l 240.289,66.571 2.371,0.66 c 18.49,4.439 35.28,-5.68 37.5,-22.6 C 31.68,21.75 18.488,4.43 0,0" /></g></g></g></g></svg>