<?xml version="1.0" encoding="UTF-8" standalone="no"?>
<svg
   xmlns:dc="http://purl.org/dc/elements/1.1/"
   xmlns:cc="http://creativecommons.org/ns#"
   xmlns:rdf="http://www.w3.org/1999/02/22-rdf-syntax-ns#"
   xmlns:svg="http://www.w3.org/2000/svg"
   xmlns="http://www.w3.org/2000/svg"
   viewBox="0 0 2592 3264"
   height="3264"
   width="2592"
   xml:space="preserve"
   id="svg2"
   version="1.1"><metadata
     id="metadata8"><rdf:RDF><cc:Work
         rdf:about=""><dc:format>image/svg+xml</dc:format><dc:type
           rdf:resource="http://purl.org/dc/dcmitype/StillImage" /></cc:Work></rdf:RDF></metadata><defs
     id="defs6"><clipPath
       id="clipPath18"
       clipPathUnits="userSpaceOnUse"><path
         id="path16"
         d="M 0,2448 H 1944 V 0 H 0 Z" /></clipPath></defs><g
     transform="matrix(1.3333333,0,0,-1.3333333,0,3264)"
     id="g10"><g
       id="g12"><g
         clip-path="url(#clipPath18)"
         id="g14"><g
           transform="translate(1290.7617,1319.7886)"
           id="g20"><path
             id="path22"
             style="fill:#6d6f71;fill-opacity:1;fill-rule:nonzero;stroke:none"
             d="m 0,0 c -0.102,-13.82 -12.811,-24.94 -28.371,-24.82 l -2.219,0.09 -190.56,8.77 c -1.51,-5.21 -7.04,-8.79 -13.27,-8.26 l -59.15,5.02 c -7,0.6 -12.25,6.15 -11.72,12.41 l 4.47,52.68 c 0.54,6.26 6.64,10.85 13.65,10.26 l 59.14,-5.02 c 7.01,-0.6 12.25,-6.15 11.719,-12.41 l -1.58,-18.65 187.891,5.12 2,0.06 C -12.441,25.14 0.1,13.83 0,0" /></g><g
           transform="translate(1332.8516,1331.4189)"
           id="g24"><path
             id="path26"
             style="fill:#939598;fill-opacity:1;fill-rule:nonzero;stroke:none"
             d="m 0,0 -1.891,-1.51 -159.259,-127.19 -2.289,2.65 c -3.741,-5.73 -9.821,-10.291 -17.362,-12.31 l -2.17,-0.5 -185.979,-42.42 c -0.06,-5.42 -4.44,-10.35 -10.59,-11.5 l -58.34,-10.959 c -6.91,-1.291 -13.45,2.658 -14.61,8.828 l -9.75,51.971 c -1.16,6.169 3.5,12.23 10.41,13.519 l 58.34,10.951 c 6.91,1.299 13.45,-2.65 14.6,-8.82 l 3.46,-18.4 179.7,55.09 1.91,0.59 c 7.461,2.01 14.929,1.16 21.009,-1.84 l 138.51,128.29 1.561,1.45 C -20.961,48.07 -4.08,47.83 4.959,37.37 14,26.91 11.779,10.17 0,0" /></g></g></g></g></svg>