<?xml version="1.0" encoding="UTF-8" standalone="no"?>
<svg
   xmlns:dc="http://purl.org/dc/elements/1.1/"
   xmlns:cc="http://creativecommons.org/ns#"
   xmlns:rdf="http://www.w3.org/1999/02/22-rdf-syntax-ns#"
   xmlns:svg="http://www.w3.org/2000/svg"
   xmlns="http://www.w3.org/2000/svg"
   viewBox="0 0 2592 3264"
   height="3264"
   width="2592"
   xml:space="preserve"
   id="svg2"
   version="1.1"><metadata
     id="metadata8"><rdf:RDF><cc:Work
         rdf:about=""><dc:format>image/svg+xml</dc:format><dc:type
           rdf:resource="http://purl.org/dc/dcmitype/StillImage" /></cc:Work></rdf:RDF></metadata><defs
     id="defs6"><clipPath
       id="clipPath166"
       clipPathUnits="userSpaceOnUse"><path
         id="path164"
         d="M 0,2448 H 1944 V 0 H 0 Z" /></clipPath></defs><g
     transform="matrix(1.3333333,0,0,-1.3333333,0,3264)"
     id="g10"><g
       transform="translate(1143.4531,1127.1406)"
       id="g12"><path
         id="path14"
         style="fill:#754c29;fill-opacity:1;fill-rule:nonzero;stroke:none"
         d="m 0,0 -40.498,-219.697 h -33 l 0,219.697 z" /></g><g
       transform="translate(1333.4668,782.0039)"
       id="g16"><path
         id="path18"
         style="fill:#754c29;fill-opacity:1;fill-rule:nonzero;stroke:none"
         d="m 0,0 -40.498,-219.697 h -33 l 0,219.697 z" /></g><g
       transform="translate(1579.4531,807.3066)"
       id="g20"><path
         id="path22"
         style="fill:#754c29;fill-opacity:1;fill-rule:nonzero;stroke:none"
         d="M 0,0 -40.498,-219.697 H -73.496 V 0 Z" /></g><g
       transform="translate(846.4961,1495.5854)"
       id="g24"><path
         id="path26"
         style="fill:#603912;fill-opacity:1;fill-rule:nonzero;stroke:none"
         d="M 0,0 38.614,-40.094 170.5,-63 210.5,-98 195.094,-518.083 -10.5,-922 l -333,421.917 z" /></g><g
       transform="translate(368.9961,1417.5854)"
       id="g28"><path
         id="path30"
         style="fill:#8b5d3b;fill-opacity:1;fill-rule:nonzero;stroke:none"
         d="m 0,0 116,-442 18,-364 h 16 L 132,-432 16,-10 460,298 v 18 z" /></g><g
       transform="translate(912.9961,1387.5854)"
       id="g32"><path
         id="path34"
         style="fill:#ffffff;fill-opacity:1;fill-rule:nonzero;stroke:none"
         d="m 0,0 112,10 -196,-492 -182,40 z" /></g><g
       transform="translate(368.9961,1417.5854)"
       id="g36"><path
         id="path38"
         style="fill:#754c29;fill-opacity:1;fill-rule:nonzero;stroke:none"
         d="M 0,0 -168,78 292,336.143 460,316 Z" /></g><g
       transform="translate(502.9961,611.5859)"
       id="g40"><path
         id="path42"
         style="fill:#603912;fill-opacity:1;fill-rule:nonzero;stroke:none"
         d="m 0,0 -18,364 -116,442 -168,78 60,-836 z" /></g><g
       transform="translate(808.937,1701.6704)"
       id="g44"><path
         id="path46"
         style="fill:#754c29;fill-opacity:1;fill-rule:nonzero;stroke:none"
         d="m 0,0 86.059,-234.085 -394,-481.999 -116,421.999 z" /></g><g
       transform="translate(894.9961,1467.5854)"
       id="g48"><path
         id="path50"
         style="fill:#8b5d3b;fill-opacity:1;fill-rule:nonzero;stroke:none"
         d="m 0,0 130,-26 32,-44 h -18 l -22,35 -131.886,22.906 z" /></g><g
       transform="translate(500.9961,985.5859)"
       id="g52"><path
         id="path54"
         style="fill:#754c29;fill-opacity:1;fill-rule:nonzero;stroke:none"
         d="m 0,0 318,-80 17,-66 v -266 l -317,38 z" /></g><g
       transform="translate(856.9961,867.5859)"
       id="g56"><path
         id="path58"
         style="fill:#8b5d3b;fill-opacity:1;fill-rule:nonzero;stroke:none"
         d="m 0,0 v -270 l -21,-24 v 266" /></g><g
       transform="translate(620.9961,985.5859)"
       id="g60"><path
         id="path62"
         style="fill:#8b5d3b;fill-opacity:1;fill-rule:nonzero;stroke:none"
         d="M 0,0 -106,145 208,516 264.114,412 Z" /></g><g
       transform="translate(620.9961,985.5859)"
       id="g64"><path
         id="path66"
         style="fill:#603912;fill-opacity:1;fill-rule:nonzero;stroke:none"
         d="m 0,0 h -22 l -103,150 19,-5 z" /></g><g
       transform="translate(828.9961,1501.5854)"
       id="g68"><path
         id="path70"
         style="fill:#603912;fill-opacity:1;fill-rule:nonzero;stroke:none"
         d="m 0,0 -17,-6 -316,-360 19,-5 z" /></g><g
       transform="translate(912.9961,1387.5854)"
       id="g72"><path
         id="path74"
         style="fill:none;stroke:#231f20;stroke-width:7;stroke-linecap:butt;stroke-linejoin:miter;stroke-miterlimit:10;stroke-dasharray:none;stroke-opacity:1"
         d="M 0,0 112,10" /></g><g
       transform="translate(828.9961,905.5859)"
       id="g76"><path
         id="path78"
         style="fill:none;stroke:#231f20;stroke-width:7;stroke-linecap:butt;stroke-linejoin:miter;stroke-miterlimit:10;stroke-dasharray:none;stroke-opacity:1"
         d="M 0,0 196,492" /></g><g
       transform="translate(500.9961,985.5859)"
       id="g80"><path
         id="path82"
         style="fill:#8b5d3b;fill-opacity:1;fill-rule:nonzero;stroke:none"
         d="M 0,0 14,17.127 335,-62.43 356,-118 335,-146 318,-80 Z" /></g><g
       transform="translate(659.7808,966.8301)"
       id="g84"><path
         id="path86"
         style="fill:none;stroke:#231f20;stroke-width:5;stroke-linecap:butt;stroke-linejoin:miter;stroke-miterlimit:10;stroke-dasharray:none;stroke-opacity:1"
         d="M 0,0 253.215,420.755" /></g><g
       transform="translate(676.1768,994.0742)"
       id="g88"><path
         id="path90"
         style="fill:none;stroke:#231f20;stroke-width:5;stroke-linecap:butt;stroke-linejoin:miter;stroke-miterlimit:10;stroke-dasharray:none;stroke-opacity:1"
         d="M 0,0 177.217,-27.244" /></g><g
       transform="translate(716.2041,1060.5859)"
       id="g92"><path
         id="path94"
         style="fill:none;stroke:#231f20;stroke-width:5;stroke-linecap:butt;stroke-linejoin:miter;stroke-miterlimit:10;stroke-dasharray:none;stroke-opacity:1"
         d="M 0,0 168.906,-14.143" /></g><g
       transform="translate(700.0532,1033.748)"
       id="g96"><path
         id="path98"
         style="fill:none;stroke:#231f20;stroke-width:5;stroke-linecap:butt;stroke-linejoin:miter;stroke-miterlimit:10;stroke-dasharray:none;stroke-opacity:1"
         d="M 0,0 171.69,-20.859" /></g><g
       transform="translate(732.3315,1087.3828)"
       id="g100"><path
         id="path102"
         style="fill:none;stroke:#231f20;stroke-width:5;stroke-linecap:butt;stroke-linejoin:miter;stroke-miterlimit:10;stroke-dasharray:none;stroke-opacity:1"
         d="M 0,0 162.665,-6.797" /></g><g
       transform="translate(752.9961,1121.5859)"
       id="g104"><path
         id="path106"
         style="fill:none;stroke:#231f20;stroke-width:5;stroke-linecap:butt;stroke-linejoin:miter;stroke-miterlimit:10;stroke-dasharray:none;stroke-opacity:1"
         d="M 0,0 160,-5.143" /></g><g
       transform="translate(770.9687,1151.5859)"
       id="g108"><path
         id="path110"
         style="fill:none;stroke:#231f20;stroke-width:5;stroke-linecap:butt;stroke-linejoin:miter;stroke-miterlimit:10;stroke-dasharray:none;stroke-opacity:1"
         d="M 0,0 H 156.027" /></g><g
       transform="translate(789.0161,1181.5742)"
       id="g112"><path
         id="path114"
         style="fill:none;stroke:#231f20;stroke-width:5;stroke-linecap:butt;stroke-linejoin:miter;stroke-miterlimit:10;stroke-dasharray:none;stroke-opacity:1"
         d="M 0,0 150.558,1.586" /></g><g
       transform="translate(804.667,1207.5801)"
       id="g116"><path
         id="path118"
         style="fill:none;stroke:#231f20;stroke-width:5;stroke-linecap:butt;stroke-linejoin:miter;stroke-miterlimit:10;stroke-dasharray:none;stroke-opacity:1"
         d="M 0,0 146.865,5.596" /></g><g
       transform="translate(818.8394,1231.5854)"
       id="g120"><path
         id="path122"
         style="fill:none;stroke:#231f20;stroke-width:5;stroke-linecap:butt;stroke-linejoin:miter;stroke-miterlimit:10;stroke-dasharray:none;stroke-opacity:1"
         d="M 0,0 144.239,10.571" /></g><g
       transform="translate(834.9961,1257.9771)"
       id="g124"><path
         id="path126"
         style="fill:none;stroke:#231f20;stroke-width:5;stroke-linecap:butt;stroke-linejoin:miter;stroke-miterlimit:10;stroke-dasharray:none;stroke-opacity:1"
         d="M 0,0 140.793,16.09" /></g><g
       transform="translate(848.9824,1281.2173)"
       id="g128"><path
         id="path130"
         style="fill:none;stroke:#231f20;stroke-width:5;stroke-linecap:butt;stroke-linejoin:miter;stroke-miterlimit:10;stroke-dasharray:none;stroke-opacity:1"
         d="M 0,0 136.705,17.694" /></g><g
       transform="translate(866.8291,1310.8716)"
       id="g132"><path
         id="path134"
         style="fill:none;stroke:#231f20;stroke-width:5;stroke-linecap:butt;stroke-linejoin:miter;stroke-miterlimit:10;stroke-dasharray:none;stroke-opacity:1"
         d="M 0,0 129.508,14.773" /></g><g
       transform="translate(878.0996,1329.6001)"
       id="g136"><path
         id="path138"
         style="fill:none;stroke:#231f20;stroke-width:5;stroke-linecap:butt;stroke-linejoin:miter;stroke-miterlimit:10;stroke-dasharray:none;stroke-opacity:1"
         d="M 0,0 125.401,14.027" /></g><g
       transform="translate(893.7046,1354.5854)"
       id="g140"><path
         id="path142"
         style="fill:none;stroke:#231f20;stroke-width:5;stroke-linecap:butt;stroke-linejoin:miter;stroke-miterlimit:10;stroke-dasharray:none;stroke-opacity:1"
         d="M 0,0 118.579,11.089" /></g><g
       transform="translate(905.3926,1374.9517)"
       id="g144"><path
         id="path146"
         style="fill:none;stroke:#231f20;stroke-width:5;stroke-linecap:butt;stroke-linejoin:miter;stroke-miterlimit:10;stroke-dasharray:none;stroke-opacity:1"
         d="M 0,0 113.144,6.418" /></g><g
       transform="translate(898.2715,1363.1187)"
       id="g148"><path
         id="path150"
         style="fill:#231f20;fill-opacity:1;fill-rule:nonzero;stroke:none"
         d="m 0,0 49.225,6.967 -6.696,-19.5 -52.304,-4.5 z" /></g><g
       transform="translate(868.7715,1315.9048)"
       id="g152"><path
         id="path154"
         style="fill:#231f20;fill-opacity:1;fill-rule:nonzero;stroke:none"
         d="m 0,0 49.225,6.967 -6.696,-19.5 -52.304,-4.5 z" /></g><g
       transform="translate(839.2715,1267.1001)"
       id="g156"><path
         id="path158"
         style="fill:#231f20;fill-opacity:1;fill-rule:nonzero;stroke:none"
         d="m 0,0 49.225,6.967 -6.696,-19.5 -52.304,-4.5 z" /></g><g
       id="g160"><g
         clip-path="url(#clipPath166)"
         id="g162"><g
           transform="translate(1205.1807,1317.9351)"
           id="g168"><path
             id="path170"
             style="fill:#808285;fill-opacity:1;fill-rule:nonzero;stroke:none"
             d="m 0,0 -15.438,-44.286 -8.429,-2.611 -1.169,3.298 c -2.725,-1.951 -5.882,-3.414 -9.297,-4.31 -3.559,-0.941 -7.404,-1.252 -11.361,-0.815 l -2.203,0.334 -188.649,28.39 c -2.036,-5.021 -7.905,-8.005 -14.031,-6.833 l -58.327,11.099 c -6.893,1.312 -11.544,7.381 -10.368,13.547 l 9.888,51.94 c 1.176,6.167 7.725,10.1 14.627,8.785 l 58.318,-11.095 c 6.901,-1.315 11.543,-7.381 10.368,-13.548 l -3.5,-18.393 187.418,-14.299 1.994,-0.145 c 7.685,-0.857 14.345,-4.387 18.912,-9.389 z" /></g><g
           transform="translate(809.7715,1215.4121)"
           id="g172"><path
             id="path174"
             style="fill:#231f20;fill-opacity:1;fill-rule:nonzero;stroke:none"
             d="m 0,0 49.225,6.967 -6.696,-19.5 -52.304,-4.5 z" /></g><g
           transform="translate(775.2715,1159.4121)"
           id="g176"><path
             id="path178"
             style="fill:#231f20;fill-opacity:1;fill-rule:nonzero;stroke:none"
             d="m 0,0 49.225,6.967 -6.696,-19.5 -52.304,-4.5 z" /></g><g
           transform="translate(738.8965,1095.1328)"
           id="g180"><path
             id="path182"
             style="fill:#231f20;fill-opacity:1;fill-rule:nonzero;stroke:none"
             d="m 0,0 52.21,1.768 -11.059,-25.832 -54.857,2.125 z" /></g><g
           transform="translate(708.8242,1043.8496)"
           id="g184"><path
             id="path186"
             style="fill:#231f20;fill-opacity:1;fill-rule:nonzero;stroke:none"
             d="M 0,0 60.582,-4.744 42.605,-36.713 -20.243,-26.566 Z" /></g><g
           transform="translate(1603.4531,817.3867)"
           id="g188"><path
             id="path190"
             style="fill:#8b5d3b;fill-opacity:1;fill-rule:nonzero;stroke:none"
             d="m 0,0 -362,-39.059 -196,380.077 256,31.263 z" /></g><g
           transform="translate(1241.4531,778.3281)"
           id="g192"><path
             id="path194"
             style="fill:#603912;fill-opacity:1;fill-rule:nonzero;stroke:none"
             d="M 0,0 V -36.102 L 362,0 v 39.059 z" /></g><g
           transform="translate(1045.4531,1158.4043)"
           id="g196"><path
             id="path198"
             style="fill:#754c29;fill-opacity:1;fill-rule:nonzero;stroke:none"
             d="m 0,0 v -38.76 l 196,-377.418 v 36.102 z" /></g><g
           transform="translate(1144.4688,1110.3926)"
           id="g200"><path
             id="path202"
             style="fill:#6d6f71;fill-opacity:1;fill-rule:nonzero;stroke:none"
             d="m 0,0 -1.905,-0.193 -156.599,-15.368 21.808,-156.64 c 9.778,-1.262 17.189,-4.944 16.837,-8.492 l -3.144,-31.662 c -0.372,-3.747 -9.238,-5.933 -19.813,-4.883 l -88.968,8.835 c -10.575,1.05 -18.838,4.938 -18.466,8.684 l 3.145,31.662 c 0.372,3.746 9.238,5.933 19.813,4.882 l 58.187,-5.778 -33.642,156.416 -0.372,1.692 c -2.37,13.222 5.456,24.647 17.477,25.518 3.101,0.223 6.181,-0.274 9.08,-1.378 l 173.471,30.023 1.712,0.298 c 13.3,1.83 24.39,-6.452 24.769,-18.499 C 23.777,13.075 13.3,1.822 0,0" /></g><g
           transform="translate(1328.0781,1020.2559)"
           id="g204"><path
             id="path206"
             style="fill:#808285;fill-opacity:1;fill-rule:nonzero;stroke:none"
             d="M 0,0 0.008,82.012 -218.229,84.07 V 2.059 Z" /></g><g
           transform="translate(1109.8496,1023.3437)"
           id="g208"><path
             id="path210"
             style="fill:#808285;fill-opacity:1;fill-rule:nonzero;stroke:none"
             d="m 0,0 c 0.045,4.744 48.934,8.129 109.195,7.561 60.26,-0.569 109.076,-4.875 109.034,-9.62 -0.047,-4.744 -48.934,-8.129 -109.196,-7.56 C 48.771,-9.051 -0.045,-4.744 0,0" /></g><g
           transform="translate(1109.8496,1105.3555)"
           id="g212"><path
             id="path214"
             style="fill:#939598;fill-opacity:1;fill-rule:nonzero;stroke:none"
             d="M 0,0 C 0.062,6.793 48.969,11.838 109.234,11.27 169.498,10.701 218.301,4.734 218.236,-2.059 218.172,-8.852 169.266,-13.896 109.002,-13.328 48.736,-12.76 -0.064,-6.793 0,0" /></g><g
           transform="translate(1310.6543,1160.7637)"
           id="g216"><path
             id="path218"
             style="fill:#414142;fill-opacity:1;fill-rule:nonzero;stroke:none"
             d="m 0,0 c 0,-4.729 -4.494,-8.561 -10.041,-8.561 h -155.982 c -5.545,0 -10.041,3.832 -10.041,8.561 0,4.729 4.496,8.563 10.041,8.563 H -10.041 C -4.494,8.563 0,4.729 0,0" /></g><g
           transform="translate(1120.1602,1360.25)"
           id="g220"><path
             id="path222"
             style="fill:#ed1c24;fill-opacity:1;fill-rule:nonzero;stroke:none"
             d="m 0,0 23.59,-198.98 c -18.72,3.56 -30.27,8.43 -30.27,13.8 L -49.26,18.67 C -46.17,11.28 -27.78,4.69 0,0" /></g><g
           transform="translate(1372.5098,1381.1499)"
           id="g224"><path
             id="path226"
             style="fill:#ef475c;fill-opacity:1;fill-rule:nonzero;stroke:none"
             d="m 0,0 -0.58,-2.48 c -6.71,-14.4 -71.51,-25.7 -150.46,-25.7 -79.399,0 -144.489,11.43 -150.569,25.95 L -302.08,0 c 0,15.57 67.62,28.19 151.04,28.19 C -67.62,28.19 0,15.57 0,0" /></g><g
           transform="translate(1070.4297,1381.1499)"
           id="g228"><path
             id="path230"
             style="fill:#939598;fill-opacity:1;fill-rule:nonzero;stroke:none"
             d="M 0,0 0.471,-2.23 C 0.16,-1.49 0,-0.75 0,0" /></g><g
           transform="translate(1372.5098,1381.1499)"
           id="g232"><path
             id="path234"
             style="fill:#939598;fill-opacity:1;fill-rule:nonzero;stroke:none"
             d="M 0,0 C 0,-0.83 -0.189,-1.66 -0.58,-2.48 Z" /></g><g
           transform="translate(1188.1348,1453.4341)"
           id="g236"><path
             id="path238"
             style="fill:#6d6f71;fill-opacity:1;fill-rule:nonzero;stroke:none"
             d="M 0,0 12.721,-66 H 61.666 L 40.295,0 Z" /></g><g
           transform="translate(1311.3105,1496.2739)"
           id="g240"><path
             id="path242"
             style="fill:#939598;fill-opacity:1;fill-rule:nonzero;stroke:none"
             d="m 0,0 v -33.59 c 0,-13.26 -47.689,-24.01 -106.51,-24.01 -58.83,0 -106.51,10.75 -106.51,24.01 V 0 c 0,-13.26 47.69,-24.01 106.51,-24.01 C -47.689,-24.01 0,-13.26 0,0" /></g><g
           transform="translate(1311.3105,1496.2739)"
           id="g244"><path
             id="path246"
             style="fill:#6d6f71;fill-opacity:1;fill-rule:nonzero;stroke:none"
             d="m 0,0 c 0,-13.26 -47.689,-24.01 -106.51,-24.01 -58.82,0 -106.51,10.75 -106.51,24.01 0,13.25 47.69,24 106.51,24 C -47.689,24 0,13.25 0,0" /></g><g
           transform="translate(1322.8066,1684.228)"
           id="g248"><path
             id="path250"
             style="fill:#939598;fill-opacity:1;fill-rule:nonzero;stroke:none"
             d="m 0,0 -11.77,-185.056 c -0.841,-13.233 -49.117,-20.934 -107.819,-17.201 -58.701,3.734 -105.612,17.489 -104.77,30.722 l 11.769,185.056 z" /></g><g
           transform="translate(1322.8066,1684.228)"
           id="g252"><path
             id="path254"
             style="fill:#939598;fill-opacity:1;fill-rule:nonzero;stroke:none"
             d="m 0,0 -11.77,-185.056 c 0.841,13.223 -46.07,26.979 -104.771,30.712 -58.702,3.734 -106.978,-3.968 -107.818,-17.191 l 11.769,185.056 z" /></g><g
           transform="translate(1322.8047,1684.2271)"
           id="g256"><path
             id="path258"
             style="fill:#6d6f71;fill-opacity:1;fill-rule:nonzero;stroke:none"
             d="m 0,0 c -0.842,-13.229 -49.113,-20.927 -107.818,-17.193 -58.706,3.733 -105.616,17.485 -104.774,30.714 0.842,13.229 49.114,20.927 107.821,17.193 C -46.066,26.981 0.842,13.229 0,0" /></g><g
           transform="translate(1133.7773,1607.5566)"
           id="g260"><path
             id="path262"
             style="fill:#fff200;fill-opacity:1;fill-rule:nonzero;stroke:none"
             d="m 0,0 c -1.156,-18.188 -8.352,-32.535 -16.068,-32.044 -7.717,0.49 -13.036,15.633 -11.879,33.822 1.157,18.189 8.351,32.535 16.068,32.044 C -4.162,33.332 1.157,18.189 0,0" /></g><g
           transform="translate(1178.1621,1604.7339)"
           id="g264"><path
             id="path266"
             style="fill:#fff200;fill-opacity:1;fill-rule:nonzero;stroke:none"
             d="m 0,0 c -1.156,-18.189 -8.351,-32.536 -16.068,-32.044 -7.717,0.49 -13.034,15.632 -11.877,33.821 1.157,18.189 8.349,32.536 16.066,32.045 C -4.162,33.332 1.157,18.189 0,0" /></g><g
           transform="translate(1346.8477,1645.3755)"
           id="g268"><path
             id="path270"
             style="fill:#bf1e2d;fill-opacity:1;fill-rule:nonzero;stroke:none"
             d="m 0,0 c -3.532,-0.008 -16.966,1.595 -35.409,4.269 -27.502,3.988 -66.162,10.348 -99.693,17.242 -32.614,6.714 -72.824,19.341 -104.676,31.657 -22.837,8.825 -41.387,17.495 -49.758,23.71 -20.036,14.871 -30.824,22.145 -26.644,30.757 4.79,9.868 37.014,7.903 55.667,2.933 3.884,-1.037 15.811,-3.894 32.568,-7.873 53.774,-12.751 157.3,-37.032 204.472,-49.651 C -14.76,50.711 -7.969,48.78 -3.767,47.392 30.308,36.125 50.75,29.369 49.851,15.898 48.95,2.426 8.805,0.027 0,0" /></g><g
           transform="translate(1323.5059,1686.3223)"
           id="g272"><path
             id="path274"
             style="fill:#ed1c24;fill-opacity:1;fill-rule:nonzero;stroke:none"
             d="m 0,0 c -2.051,-8.907 -5.238,-17.275 -9.377,-24.984 -27.501,3.988 -66.162,10.348 -99.692,17.243 -32.617,6.714 -72.824,19.341 -104.678,31.656 -0.184,8.139 0.633,16.417 2.534,24.681 2.037,8.858 5.192,17.173 9.301,24.847 21.859,40.849 70.515,63.506 119.617,52.209 C -32.271,114.143 1.957,71.123 2.56,23.792 2.655,15.94 1.833,7.962 0,0" /></g><g
           transform="translate(1135.2539,1540.2363)"
           id="g276"><path
             id="path278"
             style="fill:#414142;fill-opacity:1;fill-rule:nonzero;stroke:none"
             d="M 0,0 C -1.478,11.077 -6.026,24.613 -16.033,17.812 -26.037,11.009 -39.068,-12.21 -49.283,-1.541 -59.5,9.129 -63.706,20.844 -63.706,20.844 c 0,0 -1.34,-10.695 1.396,-19.552 2.739,-8.858 9.709,-18.654 18.341,-17.866 8.634,0.786 23.237,7.205 28.328,4.21 5.092,-2.996 10.885,-10.532 13.296,-3.761 C 0.066,-9.355 0.671,-5.023 0,0" /></g><g
           transform="translate(1136.332,1540.168)"
           id="g280"><path
             id="path282"
             style="fill:#414142;fill-opacity:1;fill-rule:nonzero;stroke:none"
             d="m 0,0 c 2.869,10.801 9.098,23.651 18.16,15.637 9.064,-8.015 19.047,-32.699 30.532,-23.409 11.485,9.29 17.141,20.376 17.141,20.376 0,0 -0.024,-10.777 -3.862,-19.217 C 58.132,-15.052 49.977,-23.886 41.515,-22.011 33.05,-20.137 19.378,-11.92 13.947,-14.246 8.52,-16.573 1.818,-23.315 0.284,-16.293 -1.25,-9.271 -1.302,-4.898 0,0" /></g><g
           transform="translate(1310.6543,1143.6426)"
           id="g284"><path
             id="path286"
             style="fill:#414142;fill-opacity:1;fill-rule:nonzero;stroke:none"
             d="m 0,0 c 0,-4.729 -4.494,-8.563 -10.041,-8.563 h -155.982 c -5.545,0 -10.041,3.834 -10.041,8.563 0,4.729 4.496,8.561 10.041,8.561 H -10.041 C -4.494,8.561 0,4.729 0,0" /></g><g
           transform="translate(1310.6543,1128.0098)"
           id="g288"><path
             id="path290"
             style="fill:#414142;fill-opacity:1;fill-rule:nonzero;stroke:none"
             d="m 0,0 c 0,-4.729 -4.494,-8.563 -10.041,-8.563 h -155.982 c -5.545,0 -10.041,3.834 -10.041,8.563 0,4.727 4.496,8.561 10.041,8.561 H -10.041 C -4.494,8.561 0,4.727 0,0" /></g><g
           transform="translate(1310.6543,1112.8867)"
           id="g292"><path
             id="path294"
             style="fill:#414142;fill-opacity:1;fill-rule:nonzero;stroke:none"
             d="m 0,0 c 0,-4.729 -4.494,-8.561 -10.041,-8.561 h -155.982 c -5.545,0 -10.041,3.832 -10.041,8.561 0,4.729 4.496,8.561 10.041,8.561 H -10.041 C -4.494,8.561 0,4.729 0,0" /></g><g
           transform="translate(1248.9199,994.0664)"
           id="g296"><path
             id="path298"
             style="fill:#939598;fill-opacity:1;fill-rule:nonzero;stroke:none"
             d="m 0,0 -2.66,-0.539 -218.561,-43.561 52.66,-217.64 c 13.959,-0.41 24.92,-4.561 24.92,-9.61 v -45.05 c 0,-5.33 -12.189,-9.651 -27.24,-9.651 H -297.51 c -15.051,0 -27.24,4.321 -27.24,9.651 v 45.05 c 0,5.33 12.189,9.651 27.24,9.651 h 82.82 l -69.31,215.67 -0.76,2.33 c -5.191,18.299 4.239,35.488 21.06,38.398 4.34,0.75 8.75,0.481 12.989,-0.67 l 240.289,66.571 2.371,0.66 c 18.49,4.439 35.28,-5.68 37.5,-22.6 C 31.68,21.75 18.488,4.43 0,0" /></g><g
           transform="translate(1185.5898,1156.3896)"
           id="g300"><path
             id="path302"
             style="fill:#ffffff;fill-opacity:1;fill-rule:nonzero;stroke:none"
             d="m 0,0 c -3.41,0.221 -6.75,0.46 -9.99,0.74 -11.98,1 -22.76,2.42 -31.85,4.14 l -23.59,198.98 c 9.58,-1.62 20.281,-3.009 31.86,-4.12 8.54,-0.84 17.56,-1.52 26.961,-2.03 z" /></g><g
           transform="translate(1255.75,1353.7002)"
           id="g304"><path
             id="path306"
             style="fill:#ed1c24;fill-opacity:1;fill-rule:nonzero;stroke:none"
             d="m 0,0 -11.85,-197.76 c -7.99,-0.36 -16.34,-0.551 -24.93,-0.551 -0.73,0 -1.46,0 -2.18,0.011 -10.89,0.04 -21.37,0.38 -31.2,0.989 L -76.77,0.4 c 10.01,-0.55 20.45,-0.9 31.2,-1.06 3.73,-0.04 7.49,-0.07 11.29,-0.07 11.79,0 23.27,0.25 34.28,0.73" /></g><g
           transform="translate(1318.7197,1359.5801)"
           id="g308"><path
             id="path310"
             style="fill:#ffffff;fill-opacity:1;fill-rule:nonzero;stroke:none"
             d="m 0,0 -24.689,-198.34 c -5.641,-1.06 -11.941,-2.01 -18.781,-2.82 -9.519,-1.12 -20.08,-1.97 -31.349,-2.48 L -62.97,-5.88 c 10.95,0.47 21.441,1.17 31.33,2.07 C -20.22,-2.79 -9.6,-1.5 0,0" /></g><g
           transform="translate(1371.9297,1378.6699)"
           id="g312"><path
             id="path314"
             style="fill:#ed1c24;fill-opacity:1;fill-rule:nonzero;stroke:none"
             d="m 0,0 -41.699,-178.83 -0.011,-0.03 -5.769,-24.74 c 0,-5.379 -11.611,-10.27 -30.42,-13.83 l 24.689,198.34 c 12.721,2.01 23.65,4.39 32.271,7.06 C -9.42,-8.46 -2.029,-4.37 0,0" /></g><g
           transform="translate(1101.9238,1145.3535)"
           id="g316"><path
             id="path318"
             style="fill:#939598;fill-opacity:1;fill-rule:nonzero;stroke:none"
             d="m 0,0 c -8.225,-7.105 -20.012,-6.941 -26.326,0.367 -6.315,7.309 -4.764,18.994 3.461,26.1 8.226,7.105 20.011,6.943 26.326,-0.365 C 9.775,18.793 8.227,7.107 0,0" /></g><g
           transform="translate(1101.9238,1145.3535)"
           id="g320"><path
             id="path322"
             style="fill:none;stroke:#a7a9ac;stroke-width:1;stroke-linecap:butt;stroke-linejoin:miter;stroke-miterlimit:10;stroke-dasharray:none;stroke-opacity:1"
             d="m 0,0 c -8.225,-7.105 -20.012,-6.941 -26.326,0.367 -6.315,7.309 -4.764,18.994 3.461,26.1 8.226,7.105 20.011,6.943 26.326,-0.365 C 9.775,18.793 8.227,7.107 0,0 Z" /></g><g
           transform="translate(1263.0762,1274.0552)"
           id="g324"><path
             id="path326"
             style="fill:#939598;fill-opacity:1;fill-rule:nonzero;stroke:none"
             d="m 0,0 -1.891,-1.51 -159.259,-127.19 -2.289,2.651 c -3.741,-5.731 -9.821,-10.291 -17.362,-12.311 l -2.17,-0.5 -185.979,-42.42 c -0.06,-5.42 -4.44,-10.349 -10.59,-11.5 l -58.34,-10.959 c -6.91,-1.291 -13.45,2.658 -14.61,8.828 l -9.75,51.971 c -1.16,6.17 3.5,12.231 10.41,13.52 l 58.34,10.951 c 6.91,1.299 13.45,-2.651 14.6,-8.821 l 3.46,-18.4 179.7,55.09 1.91,0.59 c 7.461,2.01 14.929,1.16 21.009,-1.84 l 138.51,128.29 1.561,1.451 C -20.961,48.07 -4.08,47.83 4.959,37.37 14,26.91 11.779,10.17 0,0" /></g><g
           transform="translate(1015.2285,1515.5347)"
           id="g328"><path
             id="path330"
             style="fill:#ed1c24;fill-opacity:1;fill-rule:nonzero;stroke:none"
             d="m 0,0 c 0.903,4.305 1.496,8.519 1.796,12.563 -6.215,1.897 -15.064,4.225 -22.943,5.621 -7.667,1.354 -17.764,1.055 -26.108,-0.227 -1.248,-3.656 -2.311,-7.51 -3.15,-11.503 -0.901,-4.281 -1.492,-8.466 -1.793,-12.49 -1.603,-21.417 4.975,-38.214 16.695,-39.714 11.937,-1.528 25.33,13.321 32.488,34.646 C -1.828,-7.566 -0.81,-3.848 0,0" /></g><g
           transform="translate(1013.7432,1509.4395)"
           id="g332"><path
             id="path334"
             style="fill:#bf1e2d;fill-opacity:1;fill-rule:nonzero;stroke:none"
             d="m 0,0 94.742,-13.144 v -6.632 l -106.503,6.632 V 0 Z" /></g></g></g></g></svg>